<?xml version="1.0" encoding="UTF-8" standalone="no"?>
<!-- Created with Inkscape (http://www.inkscape.org/) -->

<svg
   width="200mm"
   height="200mm"
   viewBox="0 0 200 200"
   version="1.1"
   id="svg1"
   inkscape:version="1.4.3 (1:1.4.3+202512261035+0d15f75042)"
   sodipodi:docname="10_off_.svg"
   xmlns:inkscape="http://www.inkscape.org/namespaces/inkscape"
   xmlns:sodipodi="http://sodipodi.sourceforge.net/DTD/sodipodi-0.dtd"
   xmlns="http://www.w3.org/2000/svg"
   xmlns:svg="http://www.w3.org/2000/svg">
  <sodipodi:namedview
     id="namedview1"
     pagecolor="#ffffff"
     bordercolor="#999999"
     borderopacity="1"
     inkscape:showpageshadow="2"
     inkscape:pageopacity="0"
     inkscape:pagecheckerboard="0"
     inkscape:deskcolor="#d1d1d1"
     inkscape:document-units="mm"
     inkscape:zoom="0.64011079"
     inkscape:cx="328.06821"
     inkscape:cy="507.72461"
     inkscape:window-width="1920"
     inkscape:window-height="1152"
     inkscape:window-x="0"
     inkscape:window-y="25"
     inkscape:window-maximized="1"
     inkscape:current-layer="layer1" />
  <defs
     id="defs1" />
  <g
     inkscape:label="Layer 1"
     inkscape:groupmode="layer"
     id="layer1">
    <path
       style="fill:#e5261f;fill-opacity:1;stroke-width:0.264583"
       d="m 93.949569,198.88314 c -10.47829,-0.74841 -22.63878,-3.78079 -32.14687,-8.01624 -7.38114,-3.28798 -15.199417,-8.00662 -21.173312,-12.77893 C 36.812694,175.03896 28.489145,166.72853 25.57811,163.06041 14.761266,149.43042 7.4308893,132.06177 4.9198243,114.1125 3.7019153,105.40679 3.8126883,92.638483 5.1815083,83.950002 7.9114523,66.621871 15.103195,49.996364 25.439434,37.118752 30.75908,30.491152 38.763916,22.844728 44.999193,18.434754 58.705769,8.7405984 73.595519,3.1141774 90.509989,1.2374854 c 3.90776,-0.43357242 14.888681,-0.44493892 18.653121,-0.01931 11.20204,1.266576 20.82065,3.903038 30.56282,8.377269 10.12803,4.6514486 18.87413,10.8042706 27.26454,19.1804546 8.11493,8.101166 13.37448,15.359327 18.31613,25.276183 5.27925,10.594332 8.57639,21.844772 10.15788,34.660416 0.62021,5.025975 0.61121,18.395772 -0.0154,22.886452 -3.05186,21.87075 -9.93007,38.13187 -22.5679,53.35385 -3.94657,4.75355 -10.39968,10.88781 -15.59396,14.82343 -17.85754,13.53039 -41.51103,20.66588 -63.337621,19.1069 z m 9.921881,-3.15969 c 13.51134,-0.81849 24.31288,-3.56739 35.71978,-9.09036 21.51292,-10.41613 37.37311,-27.62498 46.39548,-50.34076 2.97876,-7.49969 5.2578,-16.92002 6.26202,-25.884 0.52277,-4.66633 0.59614,-15.590007 0.13179,-19.620913 C 190.02676,70.355308 183.16321,53.172746 171.57676,38.706252 168.57892,34.96324 161.05465,27.447049 157.31728,24.46211 143.86438,13.71763 128.28092,7.0607584 111.27978,4.7960464 106.88849,4.2110824 93.703559,4.1333794 89.319359,4.6666234 77.691639,6.0808924 66.196229,9.8024004 56.081689,15.426928 52.702909,17.305821 45.777623,21.873429 43.281862,23.869139 38.710047,27.524942 31.528171,34.771697 27.677266,39.614742 19.776834,49.550594 13.407845,62.692663 10.358525,75.351044 8.1264453,84.616882 7.3551843,90.876891 7.3595293,99.692713 c 0.0038,7.628167 0.292597,11.435577 1.284589,16.933327 3.8900177,21.55895 13.0570627,39.01035 28.0922427,53.47953 16.183108,15.57387 36.948158,24.43342 60.255918,25.70856 0.87312,0.0478 1.76609,0.10821 1.98437,0.13432 0.21828,0.0261 2.420941,-0.0751 4.894801,-0.225 z m -10.318751,-4.22966 c -12.26238,-1.00648 -25.83688,-5.1427 -36.07642,-10.9927 -3.75425,-2.14487 -8.808189,-5.56633 -12.199829,-8.25917 -3.574336,-2.8379 -11.632592,-11.00778 -14.405928,-14.60546 -8.055131,-10.44952 -13.003667,-20.67575 -16.551923,-34.20481 -2.236885,-8.52898 -2.778352,-13.9932 -2.578552,-26.021597 0.179655,-10.815697 0.641554,-14.150524 3.244831,-23.427059 4.521587,-16.112262 11.856609,-28.648051 23.660955,-40.437365 8.996812,-8.985335 19.851656,-15.871177 31.909516,-20.24199 8.14835,-2.95366 16.09527,-4.5106086 25.64318,-5.0239606 3.77325,-0.202872 4.630211,0.0085 4.630211,1.142163 v 0.7588936 l -4.299481,0.171749 c -18.0462,0.720881 -35.13998,7.139242 -49.674517,18.651781 -3.236039,2.563214 -9.755849,8.967417 -12.52556,12.303445 -19.487703,23.47247 -25.8492857,56.353933 -16.670594,86.16625 4.589251,14.90585 12.214005,27.40495 23.198368,38.02859 11.475293,11.09846 25.477493,18.62115 41.186363,22.12742 4.98502,1.11267 7.77716,1.48099 13.53227,1.78509 15.418491,0.81472 29.820481,-2.27865 43.275601,-9.29503 22.6433,-11.80774 38.56617,-32.13761 44.92643,-57.36083 1.9462,-7.71814 2.64544,-13.9705 2.62401,-23.463367 -0.0138,-6.08977 -0.12155,-8.195252 -0.60574,-11.829646 -1.13162,-8.494029 -4.2205,-19.198732 -7.77917,-26.959147 -3.18556,-6.94677 -8.77869,-15.318525 -14.49983,-21.703294 -2.47179,-2.758477 -2.74704,-3.216682 -2.36315,-3.933952 0.45974,-0.859044 1.0237,-0.625223 2.71213,1.124479 10.14677,10.514997 18.17566,25.373356 21.87885,40.489211 1.94866,7.954111 2.6266,13.065255 2.83284,21.357139 0.28387,11.412257 -1.12731,20.989417 -4.70913,31.959527 -4.64484,14.22585 -11.56642,25.66683 -21.54328,35.60978 -5.93413,5.91396 -11.38653,10.2016 -17.89533,14.07249 -10.60863,6.30913 -23.35054,10.50727 -35.66358,11.75027 -4.00609,0.40441 -11.831221,0.53871 -15.213541,0.2611 z m 6.950921,-6.48411 c -3.940151,-1.08136 -6.010251,-2.50171 -7.154261,-4.90875 l -0.61986,-1.30421 -1.0436,0.78959 c -1.28952,0.97564 -1.90619,1.01708 -2.12561,0.14285 -0.20378,-0.81199 -0.21106,-0.81207 -1.2583,-0.0133 -3.08161,2.35046 -7.20852,2.34755 -11.8577,-0.008 -0.84797,-0.42968 -1.28014,-0.81697 -1.28014,-1.14717 0,-0.71412 2.15874,-3.48649 3.92007,-5.03438 2.16715,-1.90451 3.76301,-2.70081 5.72902,-2.85862 1.9122,-0.15349 3.21281,0.19812 4.83685,1.30761 l 1.12448,0.76822 v -0.68731 c 0,-0.96338 0.56999,-1.94257 1.84793,-3.17457 1.04442,-1.00688 1.11567,-1.03413 1.46547,-0.56052 0.54018,0.73134 0.98822,3.20972 0.79116,4.3762 l -0.17126,1.01367 1.80366,0.19128 c 3.15328,0.3344 4.834101,1.37791 6.127121,3.80385 1.05145,1.97273 1.62967,4.21237 1.62967,6.31236 0,1.6438 -0.009,1.66396 -0.7276,1.64481 -0.40019,-0.0107 -1.76689,-0.30461 -3.0371,-0.65322 z m 3.33782,-1.20641 c -0.033,-1.57015 -0.66836,-4.3081 -1.31686,-5.67472 -0.52313,-1.10237 -1.99112,-2.62648 -3.097241,-3.21558 -1.11381,-0.5932 -5.61006,-0.68137 -5.61006,-0.11 0,0.62224 1.73987,1.35209 3.30316,1.38562 0.80264,0.0172 1.81653,0.1214 2.25309,0.23151 0.56965,0.14368 0.29231,0.19087 -0.98235,0.16713 -0.99808,-0.0186 -1.80043,0.0828 -1.83163,0.23152 -0.0984,0.46897 1.97946,1.68723 3.38897,1.98697 0.752791,0.16008 1.511351,0.46292 1.685661,0.67297 0.27133,0.32691 0.15515,0.32481 -0.80666,-0.0145 -1.374511,-0.48495 -1.321701,-0.4853 -1.321701,0.009 0,0.22285 0.16335,0.46787 0.36301,0.54449 0.442121,0.16965 2.142911,2.48992 1.825171,2.48992 -0.12424,0 -0.74668,-0.53062 -1.38316,-1.17916 -0.636511,-0.64853 -1.250231,-1.12169 -1.363851,-1.05146 -0.11363,0.0702 -0.0344,0.61581 0.17611,1.21241 0.48448,1.37319 0.4776,1.8786 -0.014,1.01821 -0.20781,-0.3638 -0.45826,-1.23607 -0.55655,-1.93837 -0.12917,-0.92292 -0.41556,-1.52804 -1.0331,-2.18281 -1.3255,-1.40547 -1.54381,-1.2315 -1.39353,1.11054 0.14825,2.30966 -0.23008,2.04407 -0.46699,-0.32783 -0.23929,-2.39583 -0.31025,-2.58777 -1.13718,-3.07625 l -0.77237,-0.45626 -0.16454,0.82273 c -0.67392,3.36948 0.91551,5.91919 4.59792,7.3759 1.72085,0.68074 5.047381,1.58494 5.423961,1.47432 0.14552,-0.0427 0.25109,-0.72044 0.23458,-1.50599 z m -18.461141,-3.00981 c 1.9526,-0.57986 3.43683,-1.96364 3.7696,-3.51447 0.15655,-0.72966 0.17094,-1.35341 0.0344,-1.49176 -0.37883,-0.38385 -1.46942,0.50405 -2.47883,2.0181 -0.51139,0.76707 -1.18618,1.55194 -1.4995,1.74415 -0.41894,0.257 -0.31766,0.0194 0.38277,-0.89794 1.02275,-1.33947 1.19629,-1.96508 0.54507,-1.96508 -0.67103,0 -2.37503,0.97541 -3.68567,2.10977 -0.67694,0.58587 -1.36787,1.06523 -1.53543,1.06523 -0.32118,0 1.38446,-1.55825 1.7259,-1.57675 0.10914,-0.006 0.19844,-0.14307 0.19844,-0.30478 0,-0.18565 -0.31697,-0.23957 -0.8599,-0.14629 -2.27158,0.39031 -3.96951,0.49803 -3.81113,0.24181 0.0914,-0.14785 0.8523,-0.34933 1.69098,-0.44775 2.91756,-0.34236 3.15933,-0.65557 1.06182,-1.37546 -1.02185,-0.35071 -1.23446,-0.50072 -0.80425,-0.56745 0.32165,-0.0499 1.14046,0.15507 1.81956,0.45547 0.67914,0.30041 1.64418,0.5462 2.14458,0.5462 0.97425,0 1.93334,-0.39285 1.93334,-0.79191 0,-0.3546 -2.14254,-1.55483 -3.127,-1.75172 -0.8104,-0.16208 -1.19052,-0.63159 -0.51102,-0.63116 0.35277,2.2e-4 3.057,1.31152 4.18232,2.02802 0.59256,0.37729 0.77086,0.38489 1.43568,0.0612 0.41749,-0.20328 0.8033,-0.50575 0.85741,-0.67214 0.0541,-0.16638 -0.61513,-0.7617 -1.48711,-1.32291 -1.55046,-0.99789 -2.07593,-1.56265 -1.15184,-1.23799 0.25466,0.0895 1.09709,0.63216 1.87208,1.20599 1.0653,0.78878 1.56554,1.00403 2.05052,0.88231 0.8772,-0.22017 0.8068,-0.59395 -0.31035,-1.64755 -1.50638,-1.4207 -2.41742,-1.79612 -4.33986,-1.78834 -1.43533,0.006 -1.99421,0.15335 -3.37894,0.89202 -2.57061,1.37126 -6.69512,5.76793 -6.32229,6.7395 0.2169,0.56524 2.05165,1.43453 4.23679,2.00735 2.32392,0.60921 3.65086,0.64246 5.36184,0.13436 z m 7.19185,-2.78997 c 0.65643,-0.9741 0.72504,-2.64143 0.11689,-2.84124 -0.30215,-0.0993 -0.65632,0.53564 -1.42414,2.55309 -0.13232,0.3476 -0.30113,0.57144 -0.37513,0.49742 -0.074,-0.074 0.1079,-0.74979 0.40426,-1.5017 0.62732,-1.59153 0.67564,-2.14127 0.18812,-2.14127 -0.83225,0 -1.59835,1.30202 -1.71501,2.9147 -0.15139,2.09325 0.20392,2.5859 1.37269,1.9033 0.45296,-0.26454 1.09749,-0.88747 1.43232,-1.3843 z m 1.34017,-4.24841 c 0.66603,-0.71491 0.84225,-1.91593 0.51392,-3.50299 -0.3547,-1.71462 -0.84915,-1.84412 -2.06488,-0.54079 -1.20367,1.29039 -1.56015,2.73613 -0.91679,3.71803 0.5569,0.84994 0.79352,0.59647 1.28178,-1.37308 l 0.39354,-1.5875 -0.14851,1.91823 c -0.15984,2.06446 0.0321,2.34358 0.94094,1.3681 z m 23.849751,3.9929 c -10.96867,-2.1256 -15.90556,-4.34711 -19.647641,-8.84112 -1.69656,-2.0375 -2.54101,-3.86144 -3.25427,-7.0292 l -0.5642,-2.50567 -1.11569,1.76654 c -1.50559,2.38394 -3.5932,4.22669 -6.2393,5.50748 -3.35981,1.62624 -5.1059,1.90392 -12.19761,1.93977 -7.02249,0.0355 -7.13703,0.005 -6.84305,-1.80039 0.28054,-1.72334 2.1736,-7.18362 3.20477,-9.24368 2.68628,-5.36666 6.56756,-8.86149 11.21481,-10.09824 0.79378,-0.21123 1.90243,-0.38548 2.46372,-0.38721 0.86471,-0.003 0.99253,-0.0738 0.83727,-0.46616 -0.44037,-1.11297 -1.15593,-4.31235 -1.33149,-5.95312 l -0.19105,-1.78594 h 1.19219 c 0.65571,0 2.27382,0.28093 3.59579,0.62429 1.32196,0.34335 2.46621,0.56164 2.54278,0.48507 0.0766,-0.0766 0.14097,-0.50633 0.14314,-0.95502 0.007,-1.44961 0.76866,-4.11232 1.75514,-6.13535 1.7454,-3.57941 5.35506,-6.83183 10.377621,-9.35055 2.48547,-1.24642 7.99396,-3.17942 9.07737,-3.18538 0.64466,-0.004 0.73375,0.12192 0.9837,1.38517 0.98949,5.0005 1.19044,12.13407 0.44905,15.94114 -0.83108,4.26773 -3.55023,8.36551 -7.1547,10.78216 -0.8808,0.59055 -1.65757,1.1213 -1.72609,1.17944 -0.23244,0.19716 0.65024,0.59799 1.3258,0.60206 1.207,0.007 3.78809,0.78719 5.67798,1.71567 6.13736,3.01522 9.57297,8.99558 10.43117,18.15745 0.53962,5.76061 0.31404,8.46872 -0.7012,8.4178 -0.25826,-0.0129 -2.19596,-0.35811 -4.30601,-0.76701 z m 3.91972,-3.44588 c 0.34282,-11.42707 -4.37795,-19.95397 -12.35802,-22.32164 -0.78478,-0.23284 -2.38231,-0.50302 -3.55005,-0.60041 -1.84274,-0.15368 -2.1027,-0.12358 -1.96786,0.22779 0.0855,0.22268 0.40809,1.25349 0.71699,2.2907 l 0.56163,1.88583 h 2.98347 c 3.32748,0 5.72537,0.51736 5.72537,1.23529 0,0.34932 -0.21407,0.39261 -1.25677,0.25416 -2.76588,-0.36724 -6.0869,-0.4936 -6.52523,-0.24828 -0.3873,0.21673 -0.0714,0.58102 2.07674,2.39466 2.02438,1.70919 2.75915,2.17332 3.65635,2.30965 3.59363,0.546 6.58937,1.69591 6.76267,2.59584 0.1215,0.63086 -0.33763,0.57284 -2.4698,-0.3121 -2.28037,-0.94644 -3.56688,-1.2432 -3.56688,-0.82276 0,0.16761 0.81317,1.29142 1.80703,2.49734 2.00991,2.43877 4.11697,5.52263 4.39626,6.43422 0.1338,0.43682 0.075,0.59532 -0.22106,0.59532 -0.42595,0 -0.55589,-0.1541 -3.72898,-4.42249 -1.10503,-1.48648 -2.13691,-2.78165 -2.29304,-2.87815 -0.37282,-0.23042 -0.15761,3.43862 0.32292,5.506 0.3742,1.60973 0.24779,2.08046 -0.41169,1.53314 -0.64368,-0.53419 -1.16104,-2.79817 -1.38461,-6.05905 l -0.20662,-3.01325 -2.05311,-1.85691 c -1.12919,-1.0213 -2.14122,-1.7691 -2.24896,-1.66177 -0.10771,0.10732 -0.23596,1.55887 -0.28498,3.22566 -0.0733,2.49376 0.009,3.3525 0.46302,4.84839 0.63201,2.08076 0.70419,3.01644 0.22143,2.87036 -1.10921,-0.33562 -2.29042,-5.72943 -1.95818,-8.94168 0.0829,-0.80137 0.0657,-1.59449 -0.0381,-1.7625 -0.10385,-0.16801 -0.93986,-0.44167 -1.8578,-0.60812 -0.91797,-0.16646 -1.82888,-0.364 -2.02428,-0.43898 -0.56216,-0.21572 -0.72556,1.17752 -0.42206,3.59818 0.29025,2.31467 0.1124,3.27363 -0.47569,2.56503 -0.410081,-0.49411 -0.826241,-3.03013 -0.832301,-5.07157 l -0.005,-1.5875 -1.65047,-0.70915 c -0.90776,-0.39003 -1.73741,-0.62458 -1.84364,-0.52121 -0.31194,0.3035 0.28922,4.79045 0.88323,6.59246 1.79861,5.4561 6.849851,9.17496 15.317211,11.27691 3.95708,0.98231 8.79459,1.98946 9.26041,1.92799 0.31811,-0.042 0.41342,-0.60322 0.48014,-2.8274 z m -39.968141,-7.29377 c 5.67288,-0.9848 9.60834,-3.9962 11.46503,-8.77298 0.64558,-1.66089 0.86749,-5.37063 0.35211,-5.88602 -0.19635,-0.19633 -0.82151,-0.0614 -2.10019,0.45327 l -1.82062,0.73281 -0.30879,2.11667 c -0.50687,3.47425 -1.30755,5.78585 -2.37326,6.85156 -1.07043,1.07042 -1.23045,-0.0306 -0.27774,-1.91072 0.90641,-1.78869 1.52369,-4.08293 1.42812,-5.30784 l -0.0819,-1.04945 -2.44483,1.44403 c -2.50534,1.47974 -3.00162,2.03969 -3.37588,3.80888 -0.44312,2.09465 -2.5754,5.82083 -3.33094,5.82083 -0.43228,0 -0.25387,-1.09097 0.30734,-1.87908 0.76417,-1.07318 1.87817,-3.8975 1.78115,-4.51573 -0.067,-0.42671 -0.52753,-0.15058 -2.72643,1.63464 -4.60306,3.7371 -5.15937,4.10168 -5.15937,3.38119 0,-0.43396 3.21394,-3.54234 5.09323,-4.92596 2.28616,-1.68317 1.97667,-1.96686 -1.36427,-1.25056 -1.6894,0.36222 -2.40605,0.31479 -2.40605,-0.15922 0,-0.51301 1.81526,-0.97702 4.81166,-1.22995 2.95545,-0.24948 3.19461,-0.31595 5.48921,-1.5258 1.31953,-0.69573 2.39913,-1.34904 2.39913,-1.4518 0,-0.33702 -1.14699,-0.54914 -4.0264,-0.74461 -1.55966,-0.10587 -2.92095,-0.27769 -3.02506,-0.3818 -0.96882,-0.96882 4.23426,-1.14773 7.00749,-0.24095 1.55236,0.50758 1.77162,0.51949 2.97656,0.16166 0.71541,-0.21245 1.30075,-0.48455 1.30075,-0.60466 0,-0.12012 -0.50665,-0.41188 -1.12591,-0.64838 -0.61923,-0.23649 -1.70376,-0.90751 -2.41004,-1.49115 -1.13284,-0.93612 -1.44446,-1.0608 -2.64443,-1.05803 -4.33771,0.01 -9.27872,3.20204 -11.8822,7.67626 -1.91878,3.29748 -4.45145,10.62443 -3.8136,11.03265 1.02034,0.65303 8.33853,0.60552 12.28609,-0.0798 z m 22.210421,-9.01672 c 0.0926,-0.24123 0.0198,-1.16397 -0.16129,-2.05052 -0.94819,-4.6371 -3.55229,-7.14922 -6.572061,-6.33995 -0.54732,0.14667 -0.86866,0.89157 -0.3846,0.89157 0.31752,0 3.346711,2.65482 4.169251,3.65398 0.51477,0.62534 0.63955,0.95732 0.43622,1.16065 -0.20333,0.20333 -0.80039,-0.18087 -2.087461,-1.34324 -1.79562,-1.62165 -3.67572,-2.77769 -4.09551,-2.51824 -0.42839,0.26476 -0.20463,2.10257 0.38211,3.13853 0.77682,1.37151 2.58376,2.46677 5.298261,3.21146 2.6684,0.73205 2.80585,0.74097 3.01508,0.19576 z m -10.806081,-7.99909 c 0.6673,-0.42282 0.01,-1.41973 -2.66558,-4.04137 -1.44819,-1.41912 -2.55473,-2.70695 -2.45901,-2.86184 0.32592,-0.52737 2.28029,0.87595 4.4984,3.23009 1.19657,1.26994 2.25218,2.23236 2.34584,2.13871 0.0936,-0.0936 0.16764,-0.71597 0.16444,-1.38294 -0.0103,-2.16022 -1.36758,-4.26138 -3.43029,-5.3105 -1.30305,-0.66275 -4.40831,-1.59071 -5.323,-1.59071 -0.64883,0 -0.76589,0.10536 -0.76589,0.68941 0,1.07513 0.76005,3.74578 1.58179,5.55808 0.79322,1.74942 1.88217,2.70677 3.8958,3.42506 1.18428,0.42244 1.66942,0.45528 2.1575,0.14601 z m 12.261531,-2.06172 c 2.43022,-1.27398 4.65235,-3.54296 5.96712,-6.09296 1.67735,-3.2533 2.00157,-4.97721 1.97982,-10.52743 -0.0167,-4.25388 -0.40761,-9.29704 -0.74702,-9.63645 -0.43641,-0.43641 -7.50523,2.33926 -10.52716,4.13365 -3.099651,1.8405 -6.429591,5.20541 -7.671231,7.75176 -1.01129,2.07395 -1.88648,5.77047 -1.59207,6.72453 0.0936,0.30334 0.68392,1.10476 1.31185,1.78094 1.22206,1.31595 1.76448,2.37448 2.07995,4.0589 0.18661,0.99635 0.21875,1.02605 0.57835,0.53425 0.93379,-1.27704 0.99316,-2.31194 0.2582,-4.50024 -1.23258,-3.66983 -1.52672,-7.54004 -0.57306,-7.54004 0.24255,0 0.41209,0.56255 0.53825,1.78593 0.33324,3.2316 1.0283,5.75999 1.50278,5.46674 0.13255,-0.0819 0.74038,-1.1222 1.35077,-2.31174 l 1.109771,-2.16281 0.13989,-3.98131 c 0.11464,-3.26294 0.22788,-4.11544 0.62754,-4.72464 0.2682,-0.40883 0.583,-0.6413 0.69955,-0.5166 0.11658,0.12469 0.0826,1.38851 -0.0755,2.80848 -0.41095,3.69163 -0.1566,3.73889 2.21301,0.41112 1.94122,-2.72618 4.35641,-5.50642 4.78342,-5.50642 0.5193,0 0.14518,0.8218 -1.15649,2.54023 -2.30904,3.04839 -4.70635,6.76487 -4.53866,7.0362 0.33324,0.5392 3.13653,-0.6728 5.92135,-2.5601 1.21856,-0.82582 1.46986,-0.91333 1.5453,-0.53808 0.21344,1.06168 -2.86404,3.1584 -6.22867,4.24366 -1.17424,0.37875 -2.37897,0.949 -2.67716,1.26722 -0.29818,0.31822 -1.02306,1.62533 -1.61086,2.90469 -1.254971,2.73161 -1.224831,2.77433 1.6196,2.29455 1.34712,-0.22721 2.66787,-0.71112 4.40176,-1.61274 1.36245,-0.70848 2.52405,-1.28813 2.5813,-1.28813 0.0573,0 0.10414,0.22571 0.10414,0.50158 0,1.02212 -4.35885,3.13957 -7.67291,3.72735 -0.94589,0.16777 -1.970361,0.35437 -2.276611,0.41468 -0.39304,0.0774 -0.72395,0.54634 -1.1249,1.59408 -0.31242,0.81644 -0.50131,1.59243 -0.41974,1.72441 0.0816,0.13199 0.58777,0.24904 1.12488,0.26011 0.53713,0.0111 1.393291,0.18441 1.902621,0.38521 1.23777,0.48796 2.41826,0.26732 4.55078,-0.85058 z m 37.25338,18.69894 c -0.65484,-0.11269 -2.01453,-0.53617 -3.02154,-0.94106 -1.75075,-0.70394 -1.91026,-0.72257 -3.64294,-0.42545 -2.17525,0.37302 -3.65427,0.4 -3.65427,0.0667 0,-0.27338 1.01333,-0.60953 3.175,-1.05322 l 1.45521,-0.29869 0.018,-2.44316 c 0.0217,-2.97666 0.59619,-5.11111 1.88781,-7.01504 2.19887,-3.24127 5.6878,-5.47099 10.00056,-6.39121 2.59104,-0.55285 8.13088,-1.28461 10.45104,-1.38048 l 1.45521,-0.0601 -0.0452,2.36539 c -0.0295,1.54265 -0.28117,3.28569 -0.72361,5.01123 -2.42906,9.47365 -8.74548,14.04676 -17.35513,12.56516 z m 5.37655,-0.78191 c 5.3834,-0.88167 9.38017,-5.26031 11.13687,-12.20101 0.347,-1.37096 0.71834,-3.31477 0.82521,-4.31957 l 0.19431,-1.82691 -2.21803,0.18166 c -8.57944,0.70271 -13.14712,2.1153 -16.31072,5.04423 -2.52442,2.33718 -3.76669,5.29354 -3.76669,8.96401 v 1.82594 l 0.98732,-0.18522 c 1.82814,-0.34296 1.84195,-0.3674 1.98017,-3.50261 0.13219,-2.99808 0.74348,-5.20133 1.29117,-4.65364 0.19399,0.19397 0.1887,0.60855 -0.0175,1.37423 -0.31861,1.18326 -0.50299,5.172 -0.25093,5.4281 0.0846,0.0859 0.87144,-0.1534 1.74856,-0.53185 l 1.59472,-0.68809 0.15285,-2.28793 c 0.15618,-2.33804 0.92366,-5.31935 1.61147,-6.26002 0.69194,-0.94628 0.79862,-0.15454 0.2059,1.52827 -0.67554,1.91803 -1.16025,4.62054 -0.94843,5.28798 0.21178,0.66716 0.59711,0.58099 2.13334,-0.47705 1.45285,-1.00062 1.75043,-1.51721 2.20173,-3.82231 0.34017,-1.73753 1.44878,-4.23333 1.88037,-4.23333 0.36679,0 0.24704,0.61472 -0.53491,2.74602 -0.31388,0.85547 -0.53449,1.86683 -0.49025,2.24747 0.0744,0.64035 0.28538,0.48458 2.82287,-2.08457 1.58641,-1.60622 2.79429,-2.63829 2.86546,-2.44844 0.14933,0.39822 -0.38732,1.10205 -3.11301,4.08282 -1.1539,1.26189 -2.09801,2.36548 -2.09801,2.45244 0,0.20071 1.05505,-0.0463 2.90126,-0.67919 1.72553,-0.59153 1.59666,-0.58112 1.59666,-0.12899 0,0.69433 -1.73358,1.27951 -5.55625,1.87555 -0.89525,0.13959 -4.7625,2.60338 -4.7625,3.03414 0,0.37313 2.11695,0.56645 4.1679,0.3806 1.60583,-0.14551 1.96527,-0.11171 1.86941,0.17584 -0.20979,0.62935 -1.59226,0.79896 -5.11127,0.62708 -3.32751,-0.16253 -3.49991,-0.14422 -5.29167,0.56191 -1.01864,0.40145 -1.96252,0.82857 -2.09751,0.94916 -0.13957,0.12466 0.29072,0.45642 0.9974,0.76901 2.2442,0.99272 4.62878,1.24857 7.4027,0.79427 z M 118.8017,153.83509 c -2.76172,-0.74464 -4.40137,-2.18911 -6.06671,-5.34454 l -0.92604,-1.75464 1.69772,-1.59601 c 2.44205,-2.29571 4.05638,-2.98569 6.93891,-2.96576 3.15968,0.0219 4.95715,0.90523 7.66501,3.76708 2.08483,2.20338 3.82471,4.83652 3.59365,5.43864 -0.29536,0.76969 -8.3837,2.85291 -10.86798,2.79916 -0.45389,-0.01 -1.36943,-0.16459 -2.03456,-0.34393 z m 7.82391,-1.22494 c 3.62477,-0.9318 4.36563,-1.21562 4.36563,-1.67253 0,-0.63525 -2.52796,-3.98826 -4.06829,-5.39603 -0.81846,-0.74801 -2.14267,-1.68028 -2.94272,-2.07171 -1.34456,-0.65784 -1.64981,-0.70322 -4.03482,-0.5999 -2.93899,0.12732 -3.57957,0.38228 -5.51458,2.19487 l -1.29897,1.21678 1.86711,-0.083 c 1.54917,-0.0689 2.08981,-0.22333 3.175,-0.90692 1.42994,-0.90075 3.10896,-1.5219 3.6253,-1.34114 0.18063,0.0632 -0.45908,0.47473 -1.42158,0.91443 -2.60316,1.18921 -2.59466,1.42672 0.0644,1.80146 0.80394,0.1133 1.86822,0.0163 3.09695,-0.28239 1.02962,-0.25025 2.08579,-0.36617 2.34701,-0.25759 0.35232,0.14646 0.11427,0.28224 -0.92215,0.52597 -1.69601,0.39884 -1.91188,0.5763 -1.08702,0.8936 1.45918,0.5613 3.57931,1.59367 4.0716,1.98262 0.7674,0.60629 0.0455,0.53637 -1.24159,-0.12026 -0.59851,-0.30534 -1.54627,-0.71678 -2.10613,-0.91431 -1.37501,-0.48513 -1.35467,-0.0459 0.073,1.576 0.60003,0.68166 1.03492,1.2954 0.96645,1.36388 -0.23069,0.23069 -1.54864,-0.99149 -2.5916,-2.4033 -0.89437,-1.21065 -1.20758,-1.43841 -2.2978,-1.67094 -0.69426,-0.14807 -1.30786,-0.22364 -1.36358,-0.16793 -0.2958,0.29581 0.36362,1.5228 1.54236,2.8698 1.39179,1.59049 1.69715,2.23357 0.84373,1.77683 -0.63214,-0.33832 -2.50952,-2.78723 -3.11068,-4.05768 -0.44675,-0.94414 -0.53118,-0.99219 -1.74339,-0.99219 -0.70543,0 -1.27392,0.12277 -1.27392,0.27512 0,0.36204 0.98912,2.30673 1.65092,3.24584 0.2879,0.40856 0.47128,0.79505 0.40746,0.85885 -0.22354,0.22356 -1.40433,-1.25176 -2.19509,-2.74266 -0.70183,-1.32319 -0.90593,-1.5152 -1.69063,-1.59053 -0.88106,-0.0846 -0.89019,-0.0744 -0.71663,0.79375 0.25948,1.29788 1.8319,3.50629 3.13479,4.4027 2.60019,1.78897 5.1322,1.92997 10.38939,0.57854 z m -82.257898,-7.84034 c -2.565797,-2.01424 -3.365421,-2.47919 -4.26384,-2.47919 -1.52736,0 -6.033505,-1.28952 -8.039973,-2.30079 -6.498579,-3.27534 -9.414243,-10.70446 -7.579728,-19.3132 0.813038,-3.81531 3.051527,-9.34226 3.78374,-9.34226 1.193512,0 10.098866,6.6092 12.917366,9.58678 3.340867,3.52939 4.610126,6.51243 4.610126,10.83489 0,2.81736 -0.505513,4.77938 -1.979374,7.68257 l -1.171363,2.30737 1.97223,1.77215 c 1.860603,1.67183 2.394215,2.47687 1.641528,2.47649 -0.181901,-9e-5 -1.032721,-0.55126 -1.890712,-1.22481 z m -4.657725,-3.87689 c 0,-0.18665 -0.863203,-1.33801 -1.918229,-2.55857 -1.756569,-2.03217 -2.063777,-2.26801 -3.645271,-2.79838 -0.949854,-0.31854 -2.091002,-0.76738 -2.535819,-0.99742 -1.112893,-0.57549 -3.542348,-2.52149 -3.542348,-2.83741 0,-0.48645 0.830609,-0.2585 2.006817,0.55076 1.529816,1.05254 4.349004,2.44818 4.546463,2.25073 0.0848,-0.0848 -0.454237,-1.37812 -1.197849,-2.87404 -1.211765,-2.43774 -1.505955,-2.82591 -2.836227,-3.74211 -1.630635,-1.12305 -3.84212,-3.43291 -3.84212,-4.01301 0,-0.73344 0.690321,-0.33935 2.133769,1.21812 1.348883,1.45544 2.633176,2.14216 2.278713,1.21846 -0.07813,-0.20359 -0.504296,-1.8407 -0.947028,-3.63802 -0.953236,-3.86966 -1.117513,-5.38453 -0.583912,-5.38453 0.251373,0 0.640128,1.09008 1.226643,3.43958 1.000734,4.00869 1.350407,4.98638 1.704949,4.76725 0.378936,-0.23418 0.838808,-2.1258 1.030366,-4.23808 0.126524,-1.39526 0.265854,-1.85208 0.564833,-1.85208 0.691462,0 0.485987,3.31011 -0.380153,6.12428 l -0.744855,2.42011 0.866325,1.87955 c 1.290531,2.79981 1.410837,2.82285 2.522061,0.48293 0.533982,-1.12442 1.12104,-2.94739 1.351941,-4.19818 0.519351,-2.81321 0.559885,-2.93939 0.880719,-2.7411 0.400738,0.24766 0.320225,3.03139 -0.131683,4.55309 -0.218969,0.73737 -0.814282,2.25386 -1.322917,3.36997 -0.508635,1.11611 -0.924771,2.22153 -0.924771,2.45649 0,0.57741 1.920954,3.52772 2.231522,3.42734 0.413649,-0.13369 1.9608,-3.11693 2.563098,-4.94219 0.628174,-1.90373 0.959988,-2.45341 1.339453,-2.21889 0.61214,0.37832 -0.47035,3.82171 -2.047266,6.51232 -0.501492,0.85566 -0.911808,1.64862 -0.911808,1.76214 0,0.11351 0.48567,0.73221 1.079262,1.37488 1.052592,1.13967 1.089316,1.15545 1.487064,0.63934 0.224314,-0.29104 0.877809,-1.5164 1.452193,-2.72301 0.893974,-1.87794 1.066297,-2.53254 1.196736,-4.54594 0.437965,-6.75979 -2.411677,-11.09508 -11.432963,-17.39348 -2.684939,-1.87455 -4.120205,-2.72195 -4.610274,-2.72195 -0.582224,0 -2.32799,4.52077 -3.100568,8.02911 -0.563454,2.55871 -0.570595,6.99711 -0.01463,9.0986 1.496295,5.6559 5.635715,9.39243 11.938513,10.77651 2.107882,0.46288 2.269252,0.46764 2.269252,0.0668 z m 33.416952,1.30959 c -1.8674,-1.91607 -9.10725,-9.67501 -16.08854,-17.24209 C 50.057129,117.39333 40.889711,107.51114 36.666379,103 18.834878,83.953272 18.807904,83.919723 18.807904,80.789033 c 0,-1.783588 0.860777,-4.266875 2.860185,-8.251434 C 24.614606,66.665575 28.015591,61.316832 31.992065,56.301044 34.77609,52.789367 42.432682,45.243106 46.030803,42.464577 59.824379,31.813029 76.448569,25.254061 93.572199,23.707452 c 3.05323,-0.275767 3.67712,-0.25999 5.27084,0.133295 3.232151,0.797612 5.600381,2.786313 7.108511,5.96932 0.76753,1.619903 0.83031,1.963576 0.83031,4.544282 0,2.689624 -0.0361,2.864879 -0.98578,4.786455 -0.63463,1.2841 -1.45611,2.434529 -2.30611,3.2296 l -1.3203,1.234992 0.91017,9.456677 c 0.50056,5.201174 2.10386,21.408011 3.56285,36.015194 1.45899,14.607183 2.65271,26.961663 2.65271,27.454403 0,0.72682 -0.16229,0.99485 -0.85989,1.42019 -0.47294,0.28836 -1.07434,0.52473 -1.33641,0.52527 -0.56124,10e-4 -1.24328,-1.44511 -1.24328,-2.63634 0,-0.79074 -0.0198,-0.80232 -1.38906,-0.80749 -4.28805,-0.0162 -7.318721,-1.12725 -9.925661,-3.63884 -4.01685,-3.86994 -4.95771,-10.23213 -2.24912,-15.208697 1.5326,-2.81589 5.23436,-5.365402 8.882411,-6.117555 0.99047,-0.204216 1.86618,-0.436642 1.94604,-0.516498 0.15406,-0.154059 -0.9211,-10.593522 -1.15335,-11.198781 -0.19079,-0.497194 -0.3783,-0.45303 -1.41766,0.333936 -4.967501,3.761129 -11.298821,3.430373 -15.463391,-0.807825 -3.7152,-3.780883 -4.52255,-8.468061 -2.28296,-13.25398 2.07314,-4.430199 7.37865,-7.287601 12.0064,-6.466337 0.9095,0.161404 2.45882,0.66122 3.44294,1.1107 0.98414,0.449479 1.866131,0.740426 1.960011,0.646549 0.17322,-0.173231 -0.374391,-6.041213 -0.624631,-6.693366 -0.23897,-0.622744 -2.23719,-0.987613 -5.50593,-1.005363 -3.93216,-0.02135 -4.43407,0.193161 -8.33241,3.561241 -1.52692,1.319197 -3.37238,2.686505 -4.10105,3.038464 -1.64779,0.795896 -4.02116,1.183669 -7.26061,1.186265 -3.99794,0.0032 -5.65764,1.151668 -7.06784,4.890712 -1.099,2.91388 -1.8941,4.339547 -3.19707,5.732541 -1.51897,1.623899 -3.11385,2.526263 -6.92536,3.918268 -1.65973,0.60615 -3.46094,1.328219 -4.00267,1.604597 -1.48693,0.758579 -3.03287,2.699734 -3.961159,4.973857 -2.162122,5.296739 -2.872052,6.220085 -6.679432,8.68739 -1.418829,0.919446 -2.579688,1.823295 -2.579688,2.008555 0,0.18527 0.670216,1.10988 1.48934,2.05469 2.835063,3.27001 23.950369,25.927217 24.162779,25.927217 0.11732,0 0.66138,-0.56555 1.20904,-1.25677 1.39129,-1.75602 2.1045,-2.3371 4.22738,-3.4443 1.8129,-0.94553 1.91656,-0.9662 4.89982,-0.97672 2.92269,-0.0103 3.12039,0.025 4.8196,0.86128 3.19222,1.57104 5.78215,4.74922 6.53645,8.02109 0.63122,2.73803 0.1411,6.23734 -1.22518,8.74766 -0.81523,1.49783 -3.13698,3.74715 -4.94903,4.79467 -1.16181,0.6716 -1.2654,0.8099 -1.1266,1.50396 0.43326,2.16623 0.77439,5.25658 0.6236,5.64947 -0.0941,0.24525 -0.44233,0.55234 -0.77383,0.68243 -0.33152,0.13009 -1.21991,0.47636 -1.97424,0.76949 l -1.37147,0.53297 z m 3.76743,-2.87152 c -1.02198,-3.13453 -0.43524,-2.45464 -25.53499,-29.58775 -8.953791,-9.67913 -16.657161,-18.036717 -17.118647,-18.572427 -0.653203,-0.758273 -0.877438,-1.3142 -1.012402,-2.50991 -0.423889,-3.755012 -1.530482,-5.939258 -3.917418,-7.732398 -1.738357,-1.305901 -3.768021,-1.985507 -5.38535,-1.803212 -1.377694,0.155287 -1.66827,0.46522 -1.674024,1.785533 -0.0058,1.328063 1.170868,2.938121 5.353796,7.325775 1.967698,2.064001 6.482945,6.884972 10.033918,10.713272 26.465637,28.532737 34.283627,36.964457 36.579257,39.450767 2.87067,3.10911 3.45217,3.31128 2.67586,0.93035 z m 5.09558,-7.98891 c 1.69035,-1.78728 2.29185,-3.59928 2.11146,-6.36066 -0.14497,-2.21911 -0.75229,-3.54776 -2.35381,-5.14925 -1.851,-1.851 -2.89338,-2.27028 -5.6574,-2.27555 -2.71923,-0.005 -3.60871,0.3208 -5.55861,2.03719 -1.26659,1.1149 -1.98202,2.22128 -1.98202,3.06513 0,0.27966 2.17165,2.92073 4.89186,5.94928 l 4.89185,5.44636 1.15753,-0.64696 c 0.63664,-0.35583 1.76125,-1.28532 2.49914,-2.06554 z m 23.496721,-20.10892 c 0.0354,-0.0397 -0.27889,-3.21009 -1.08807,-10.97497 -0.37505,-3.598937 -0.78118,-6.346487 -0.97213,-6.576557 -0.8014,-0.96562 -4.033021,0.18493 -6.336511,2.25597 -1.99699,1.79549 -2.87538,3.79128 -2.87538,6.533227 0,1.78 0.12001,2.36917 0.75462,3.70417 1.28994,2.71373 3.59851,4.62707 6.215061,5.15108 0.83788,0.16779 4.13327,0.0966 4.30241,-0.0929 z M 39.954171,87.588023 c 2.693167,-1.58364 4.600522,-3.667549 5.445786,-5.949945 1.186339,-3.203337 1.961118,-4.63301 3.311366,-6.110393 1.520716,-1.663904 3.411116,-2.728508 7.165366,-4.035277 5.11056,-1.77887 5.79869,-2.391751 8.08016,-7.196524 1.88781,-3.975735 2.63459,-5.070927 4.17537,-6.123228 1.60062,-1.093168 2.5251,-1.304213 7.01439,-1.601263 4.91239,-0.325046 5.28503,-0.475372 8.6165,-3.475893 2.71989,-2.449695 4.68437,-3.545458 7.37738,-4.115024 1.91135,-0.404247 4.64455,-0.335005 6.90269,0.174871 0.57801,0.130508 1.095,0.193193 1.1489,0.139298 0.0539,-0.0539 0.0135,-0.999819 -0.0898,-2.102046 l -0.1878,-2.004055 -1.09339,0.0013 c -3.42308,0.0038 -12.25169,1.867006 -17.73905,3.74364 -5.16154,1.765215 -11.56279,4.972259 -16.42726,8.230105 -7.71978,5.170109 -14.625109,12.046683 -19.667512,19.585617 -2.677821,4.003532 -6.65853,10.993974 -6.65853,11.692816 0,0.394478 1.12395,0.02887 2.625434,-0.854022 z m -2.470997,-6.883014 c 7.303214,-13.154215 19.215025,-24.519315 32.918475,-31.407653 7.20998,-3.624246 15.2568,-6.055505 24.13101,-7.290903 5.17633,-0.720611 6.756031,-1.511358 8.079211,-4.044211 0.59103,-1.131356 0.71824,-1.721491 0.72374,-3.357031 0.0143,-4.276797 -2.48415,-7.297817 -6.287721,-7.602641 -4.91072,-0.393554 -17.84395,2.226289 -25.65643,5.197139 -9.17109,3.487492 -16.94654,7.835128 -23.796016,13.305504 -3.334491,2.663116 -10.586058,9.856034 -13.017817,12.912498 -3.755522,4.720333 -9.55071,14.014214 -10.081966,16.168692 -0.163682,0.6638 -0.102103,0.707694 1.588598,1.132385 0.967385,0.242999 2.293911,0.693309 2.947831,1.000689 1.582052,0.743645 5.137073,4.119332 5.937252,5.637728 0.628862,1.193295 0.647039,1.204579 1.082014,0.671788 0.243311,-0.29804 0.887624,-1.343832 1.431819,-2.323984 z M 30.622872,71.69219 c -0.240839,-0.266121 -0.437885,-0.575287 -0.437885,-0.687036 0,-0.374071 2.953491,-4.746953 5.553101,-8.221818 6.753649,-9.027483 14.875191,-16.129037 24.741691,-21.634397 4.92313,-2.747031 6.09931,-3.243027 6.86408,-2.894579 0.78386,0.357158 0.88059,1.122431 0.21352,1.689613 -0.25466,0.216533 -2.36802,1.443445 -4.69635,2.726473 -7.61294,4.195099 -12.15348,7.599508 -18.14248,13.602848 -4.394332,4.404831 -6.351508,6.79118 -9.950582,12.132437 -2.678906,3.97569 -3.169391,4.364591 -4.145095,3.286459 z M 72.417009,37.285281 c -0.72496,-0.801073 -0.37118,-1.296069 1.54837,-2.166435 2.00972,-0.911259 2.29304,-0.940241 2.87756,-0.294364 0.81724,0.903052 0.55467,1.517414 -0.91967,2.151652 -2.04367,0.87916 -2.92044,0.956466 -3.50626,0.309147 z m 24.31069,39.727796 c 1.62358,-0.842862 3.2376,-2.637306 3.862941,-4.294788 0.72149,-1.91229 0.6137,-5.151049 -0.22553,-6.776638 -1.964401,-3.805018 -6.786991,-5.533141 -10.437891,-3.740304 -5.72082,2.809309 -6.47087,10.539148 -1.37756,14.196888 1.62841,1.169435 2.26243,1.331037 4.87074,1.241478 1.64619,-0.05652 2.53262,-0.224475 3.3073,-0.626636 z m 27.900471,62.271353 c -1.57763,-0.42549 -2.88386,-1.25207 -4.09221,-2.58959 -1.77847,-1.96854 -1.95966,-2.70443 -2.27512,-9.23957 -0.5506,-11.40611 0.41113,-14.78525 4.86788,-17.10346 1.25608,-0.65336 1.64198,-0.71804 4.29064,-0.71919 2.41501,-0.001 3.12285,0.0955 4.15851,0.56695 1.88386,0.85764 3.78775,2.7787 4.49604,4.53659 0.58047,1.44064 0.60163,1.7807 0.60373,9.69509 0.003,7.90484 -0.0196,8.25558 -0.59529,9.67828 -0.72935,1.80218 -2.11953,3.47422 -3.59198,4.32023 -2.01441,1.15742 -5.38224,1.52353 -7.8622,0.85467 z m 4.55311,-3.9975 c 1.09844,-0.17588 2.71735,-1.75123 3.06001,-2.97766 0.11284,-0.40385 0.20515,-3.94896 0.20515,-7.87802 0,-7.09202 -0.005,-7.1533 -0.66145,-8.46223 -0.91239,-1.81867 -1.96088,-2.38569 -4.41143,-2.38569 -2.05017,0 -2.8104,0.35346 -3.90046,1.81346 -0.69397,0.92951 -0.90995,3.25189 -0.91392,9.82821 -0.003,5.63476 0.17999,7.25768 0.93445,8.26821 1.03992,1.39285 2.80752,2.25006 4.19032,2.03213 0.29104,-0.0459 0.96482,-0.15315 1.49733,-0.23841 z m 33.05812,3.85602 c -0.7299,-0.72991 -0.87434,-3.96059 -0.77398,-17.31292 0.0816,-10.86 0.1066,-11.34811 0.59877,-11.70781 0.41514,-0.30339 1.96697,-0.37535 8.09493,-0.37535 8.5071,0 8.45712,-0.0114 8.45712,1.92017 0,1.7538 -0.11679,1.784 -6.89806,1.784 h -6.06653 v 4.08543 c 0,2.24698 0.11068,4.15383 0.24596,4.23743 0.13525,0.0836 1.92736,0.22849 3.9824,0.32197 3.59124,0.16337 3.75701,0.19608 4.26485,0.8417 0.35409,0.45015 0.50231,0.97982 0.44934,1.60578 -0.11875,1.40373 -0.74917,1.59921 -5.17223,1.60379 l -3.77032,0.004 v 5.80361 c 0,3.19198 -0.11057,6.0944 -0.24569,6.44982 -0.1424,0.37456 -0.60391,0.77109 -1.09781,0.94327 -1.16975,0.40777 -1.48767,0.3763 -2.06875,-0.20479 z m -20.23113,-0.3102 -0.72821,-0.57283 0.0811,-13.88115 c 0.0782,-13.38579 0.0994,-13.89455 0.5947,-14.25653 0.41524,-0.30348 1.96977,-0.37537 8.11705,-0.37537 8.49381,0 8.43851,-0.0119 8.43094,1.80484 -0.007,1.80508 0.16246,1.7585 -6.7393,1.84682 l -6.23422,0.0798 0.0727,4.28585 0.0726,4.28584 4.05641,0.13229 c 4.56673,0.14893 4.80713,0.25657 4.80713,2.15223 0,1.63284 -0.51429,1.81652 -5.08595,1.81652 h -3.90988 l -0.004,5.88698 c -0.005,6.8248 -0.086,7.16673 -1.73643,7.28872 -0.77775,0.0575 -1.26363,-0.0763 -1.7947,-0.49399 z M 95.272489,121.61621 c -1.57113,-0.95704 -3.96404,-2.88494 -4.39256,-3.53894 -0.30448,-0.46468 -0.33774,-0.75244 -0.13153,-1.13778 0.63667,-1.18958 1.62783,-0.86189 4.95258,1.63738 1.91437,1.43907 2.45369,2.37655 1.7894,3.11056 -0.57838,0.63912 -1.07812,0.62307 -2.21789,-0.0712 z m -14.15521,-13.41789 c -2.71672,-1.28967 -4.36563,-2.33585 -4.36563,-2.76982 0,-0.71379 0.7162,-1.32061 1.53131,-1.29743 0.44905,0.0127 2.04438,0.65646 3.54517,1.43044 2.3866,1.23079 2.73942,1.50048 2.81401,2.15084 0.0965,0.8422 -0.33848,1.50888 -0.97756,1.49808 -0.23685,-0.004 -1.38313,-0.45946 -2.5473,-1.01211 z m -20.83485,-2.95541 c -2.75003,-0.69316 -6.02353,-3.08125 -7.60775,-5.550027 -2.4705,-3.84993 -2.47907,-9.366235 -0.0204,-13.197574 1.04394,-1.626833 3.29613,-3.77119 4.72808,-4.501724 2.61895,-1.336082 6.23909,-1.707329 9.19348,-0.942797 7.20569,1.864669 11.17005,10.447015 7.95393,17.219255 -1.22462,2.578707 -3.54973,4.950197 -6.06208,6.183017 -1.62901,0.79936 -2.06034,0.8916 -4.49792,0.9619 -1.48288,0.0428 -3.14214,-0.0347 -3.68723,-0.17205 z m 6.67964,-3.99976 c 1.74707,-0.82549 3.72621,-2.759327 4.53557,-4.431697 0.48281,-0.99766 0.59079,-1.67751 0.59296,-3.73333 0.003,-2.215384 -0.082,-2.677259 -0.71081,-3.893755 -0.79348,-1.53493 -2.09523,-2.947517 -3.57275,-3.876929 -3.36698,-2.117971 -7.84677,-1.596988 -10.71308,1.245894 -2.13437,2.116907 -2.6996,3.483049 -2.6996,6.52479 0,2.15195 0.0952,2.70386 0.66146,3.83646 0.95319,1.9064 3.03247,3.906377 4.77163,4.589657 2.05407,0.80699 5.1109,0.69513 7.13462,-0.26109 z m 68.243791,1.27981 c -2.6648,-0.75605 -4.65751,-2.42707 -5.96042,-4.998227 -1.01817,-2.00926 -1.24656,-5.38328 -1.089,-16.088273 0.15258,-10.36751 0.25392,-10.939991 2.40006,-13.55722 2.13304,-2.601262 5.03306,-3.546949 9.43472,-3.076634 2.19263,0.234284 3.10947,0.685197 4.96888,2.443753 1.6733,1.582536 2.26735,2.636824 2.70782,4.805786 0.45834,2.256901 0.67583,19.763148 0.27742,22.330938 -0.57229,3.6884 -2.72082,6.543017 -5.80268,7.709667 -1.85087,0.70065 -5.24225,0.91098 -6.9368,0.43021 z m 5.57496,-4.827407 c 2.47634,-1.2422 2.73939,-2.79074 2.60308,-15.322785 -0.0986,-9.069425 -0.11422,-9.298123 -0.71758,-10.534647 -0.94922,-1.945312 -2.09976,-2.679237 -4.37446,-2.79046 -1.62375,-0.07939 -2.00036,-0.0078 -2.79448,0.531116 -0.5048,0.34258 -1.24859,1.157931 -1.6529,1.811888 l -0.73512,1.189016 -0.0288,10.844536 c -0.0257,9.659116 0.0206,10.967086 0.42354,11.965646 0.49284,1.22168 1.91323,2.63396 2.84975,2.83352 1.39885,0.29806 1.69027,0.3218 2.44255,0.19899 0.43657,-0.0713 1.32954,-0.39833 1.98438,-0.72682 z m 15.03561,4.414707 -0.84773,-0.75745 0.45424,-1.18942 c 0.24985,-0.654177 3.25967,-6.117627 6.68851,-12.140985 14.06202,-24.702362 13.42207,-23.67797 14.61656,-23.398175 1.0826,0.253582 1.96776,1.399415 1.78541,2.311148 -0.0834,0.417129 -3.70745,6.975906 -8.05341,14.575062 -4.34594,7.599154 -8.65019,15.165633 -9.56496,16.814403 -2.66316,4.799987 -3.36097,5.320117 -5.07862,3.785417 z m 16.86928,0.42894 c -1.34075,-0.35446 -3.19879,-2.19906 -3.57317,-3.547297 -0.15561,-0.56044 -0.28361,-2.75178 -0.28441,-4.86964 -0.003,-3.622181 0.0395,-3.932907 0.68932,-5.236933 0.95219,-1.910776 2.71669,-2.944926 5.03082,-2.948471 2.37159,-0.0036 3.12523,0.216098 4.35676,1.270251 1.82951,1.566003 2.07991,2.438487 2.08664,7.270623 0.005,3.62063 -0.0627,4.31197 -0.50777,5.18442 -1.36765,2.680847 -4.36186,3.785517 -7.79819,2.877047 z m 3.7861,-3.574097 c 0.7442,-0.61525 1.17303,-3.02613 1.03042,-5.79262 -0.12086,-2.343942 -0.57464,-3.384307 -1.65544,-3.795223 -0.85984,-0.326914 -2.44023,0.148457 -2.89139,0.869722 -0.85207,1.362121 -0.66226,7.658461 0.26167,8.679361 0.5951,0.65758 2.47912,0.68001 3.25474,0.0388 z m -57.74584,3.091377 -0.69492,-0.54664 -0.0683,-14.85831 -0.0683,-14.858312 -1.05833,0.946981 c -1.54813,1.385242 -2.12252,1.638482 -2.84427,1.254019 -1.4696,-0.782817 -1.70762,-2.516817 -0.52917,-3.855056 1.67497,-1.902103 5.64436,-5.087009 6.55225,-5.257334 1.37416,-0.257792 2.20461,0.04249 2.43956,0.8821 0.11134,0.397965 0.20246,8.621998 0.20246,18.275625 V 101.5916 l -0.62463,0.50576 c -0.83804,0.67857 -2.41641,0.65906 -3.30626,-0.0409 z M 84.173269,89.522251 c -0.17386,-0.209481 -0.27773,-0.715497 -0.23085,-1.124479 0.0741,-0.646147 0.29334,-0.817621 1.67278,-1.308372 0.87312,-0.310627 2.46247,-0.783887 3.53192,-1.051693 1.91839,-0.480406 1.9495,-0.479933 2.32629,0.03536 0.21006,0.287259 0.34711,0.82005 0.30457,1.183984 -0.069,0.589717 -0.39397,0.768985 -2.98778,1.647984 -3.16614,1.072949 -4.13161,1.202015 -4.61693,0.617212 z m 72.118691,-8.193219 c -1.14321,-0.426101 -2.66017,-1.767166 -3.23058,-2.855995 -0.28022,-0.534858 -0.37431,-1.851144 -0.37431,-5.236062 0,-3.924165 0.0665,-4.651298 0.50342,-5.503243 1.02267,-1.994183 2.74302,-2.966958 5.24277,-2.964545 2.32003,0.0021 3.50063,0.431488 4.74761,1.726179 1.47267,1.529021 1.77488,2.930784 1.62861,7.553626 -0.11475,3.625718 -0.36128,4.591405 -1.50484,5.894268 -1.22955,1.40085 -4.98253,2.142472 -7.01268,1.385772 z m 3.37926,-3.171402 c 1.20584,-0.503838 1.48802,-1.478341 1.45614,-5.02888 -0.033,-3.672919 -0.16158,-4.136316 -1.32226,-4.76432 -1.03304,-0.558956 -1.91868,-0.463413 -2.87385,0.310033 -0.53964,0.436983 -0.59682,0.767416 -0.73443,4.243695 -0.1469,3.710289 -0.13922,3.780602 0.48562,4.453199 0.5779,0.622102 1.3671,1.094719 1.9001,1.137915 0.11383,0.0092 0.60373,-0.149014 1.08868,-0.351642 z M 72.353669,76.529424 c -0.41865,-0.638958 -0.4051,-0.812245 0.2626,-3.359992 0.77766,-2.967341 1.25561,-3.903805 1.99242,-3.903805 0.89254,0 1.17202,0.678746 0.99134,2.407531 -0.19817,1.89598 -0.89943,4.73188 -1.28569,5.19924 -0.46405,0.561533 -1.48503,0.382939 -1.96067,-0.342974 z m 82.078781,-18.14844 c -5.48421,-0.703718 -11.13158,-2.323986 -13.55138,-3.887978 -2.81271,-1.817939 -5.23936,-5.35917 -5.9204,-8.639675 -0.16652,-0.802196 -0.38994,-1.458537 -0.49649,-1.458537 -0.10654,0 -0.69662,0.369843 -1.31127,0.821875 -1.41044,1.037244 -3.32338,1.769293 -5.19967,1.989815 l -1.45992,0.171582 v -1.478613 c 0,-2.202733 0.45537,-3.925972 1.45621,-5.510588 l 0.89559,-1.418029 -2.00088,-0.20615 C 120.6527,38.126781 116.37962,34.67101 113.8492,28.255211 c -0.86741,-2.199296 -1.82978,-6.101747 -1.95747,-7.9375 l -0.0828,-1.190625 4.49791,0.04303 c 3.61328,0.03457 4.91421,0.151956 6.61459,0.596858 6.25363,1.636271 10.04974,5.283922 11.50744,11.057398 l 0.28125,1.113948 1.59684,-1.032089 c 1.83708,-1.187368 3.86432,-1.931715 4.92826,-1.809528 l 0.7362,0.08455 -0.0193,2.38125 c -0.0161,1.992862 -0.13478,2.634755 -0.7276,3.935526 -0.3896,0.854853 -0.70837,1.58401 -0.70837,1.620353 0,0.03634 1.33945,0.123788 2.97656,0.194326 2.19636,0.09464 3.3736,0.281075 4.49125,0.711266 2.27751,0.876628 4.4845,2.639692 5.99268,4.787247 2.46753,3.513632 3.62421,7.310789 3.9225,12.876736 l 0.16044,2.994337 -0.90035,-0.03347 c -0.49522,-0.01842 -1.7223,-0.138935 -2.72687,-0.26784 z m 2.75254,-1.359276 c 0,-1.278774 -0.57539,-5.18709 -1.0799,-7.335247 -1.96726,-8.376412 -8.58443,-13.004451 -16.07037,-11.239635 -0.91969,0.216815 -1.96389,0.54706 -2.32045,0.733877 -0.62756,0.328817 -0.57308,0.376 1.70561,1.477024 l 2.35389,1.137359 1.97523,-0.299411 c 2.24903,-0.340915 5.35289,0.0054 6.02686,0.672373 0.35004,0.346416 0.0551,0.371284 -2.53675,0.213868 -4.10204,-0.249143 -4.3625,-0.03248 -2.03509,1.692899 2.08947,1.548998 2.57003,1.761641 4.56184,2.01862 1.6805,0.216813 3.87831,1.095536 4.08461,1.63309 0.19307,0.503145 -0.24477,0.469273 -2.02586,-0.156731 -0.82807,-0.291042 -1.8169,-0.529167 -2.19742,-0.529167 -0.65291,0 -0.59587,0.107977 1.01325,1.91823 2.2539,2.53561 3.63413,4.382198 3.63413,4.86206 0,0.661709 -0.62608,0.09817 -2.75611,-2.480811 -1.11175,-1.346067 -2.13707,-2.447395 -2.27846,-2.447395 -0.39423,0 -0.30909,1.034999 0.27207,3.307291 0.62095,2.427936 0.60108,2.248959 0.24995,2.248959 -0.52038,0 -1.54524,-2.753755 -1.72323,-4.630209 -0.0966,-1.018645 -0.34237,-2.11873 -0.5461,-2.444633 -0.60748,-0.971685 -3.05072,-2.777551 -3.35126,-2.477003 -0.34944,0.349435 0.18161,5.021149 0.76483,6.728492 0.3171,0.928232 0.35697,1.357188 0.14581,1.568357 -0.74229,0.742294 -1.88429,-3.782216 -1.88802,-7.480186 l -0.003,-1.988309 -1.65344,-0.846664 c -1.48127,-0.7585 -1.67102,-0.799418 -1.82237,-0.392941 -0.15832,0.425228 -0.0951,2.517997 0.16365,5.414658 0.0854,0.956575 0.0233,1.256771 -0.25974,1.256771 -0.59468,0 -0.92295,-1.758511 -0.92454,-4.952931 l -0.003,-2.968556 -1.25677,-0.37532 c -0.69123,-0.206425 -1.35726,-0.28217 -1.48011,-0.168325 -0.12282,0.113848 -0.18235,1.439997 -0.13229,2.947001 0.0839,2.525813 0.16862,2.902458 1.08328,4.818126 2.33101,4.881901 6.33434,7.148888 15.01505,8.502649 1.52797,0.238287 2.95672,0.471361 3.175,0.517943 0.21829,0.04658 0.78383,0.09851 1.25677,0.115388 0.72729,0.02596 0.8599,-0.06219 0.8599,-0.571561 z m -26.20026,-11.56526 c 1.48487,-0.757523 2.93454,-2.097532 3.35322,-3.099544 0.36174,-0.86578 0.48363,-2.510234 0.20661,-2.787266 -0.083,-0.08297 -1.1114,0.849688 -2.28544,2.072569 -1.17401,1.222883 -2.23721,2.22342 -2.36268,2.22342 -0.56681,0 -0.0794,-0.814025 1.63,-2.72216 1.01533,-1.133385 1.84605,-2.162445 1.84605,-2.286796 0,-0.41179 -0.74092,-0.519227 -1.71879,-0.249225 -1.3245,0.36571 -2.87335,1.837381 -3.51745,3.342164 -0.61828,1.444453 -0.99359,3.584991 -0.70922,4.04508 0.26848,0.434401 2.23407,0.137027 3.5577,-0.538242 z m 5.98844,-7.273142 c 0.72351,-0.21486 1.63137,-0.720876 2.01743,-1.124479 1.12889,-1.180126 2.12711,-3.648469 2.1591,-5.338836 0.0254,-1.345002 -0.0266,-1.488157 -0.56901,-1.565175 -0.80822,-0.11476 -3.17161,0.999683 -4.39161,2.070846 -0.54763,0.480833 -1.22679,1.327253 -1.50926,1.880936 -0.53388,1.04647 -0.69469,3.001293 -0.26855,3.264649 0.13475,0.08329 0.92069,-0.653825 1.74654,-1.63803 2.82567,-3.367585 2.61628,-3.163335 2.71775,-2.65089 0.1048,0.529225 -0.55285,1.552345 -2.36056,3.672393 -0.69787,0.818431 -1.19433,1.562571 -1.10324,1.653646 0.20556,0.205563 0.0225,0.231947 1.56141,-0.22506 z m -5.91579,-0.703 c 0.54571,-0.137311 0.99219,-0.339969 0.99219,-0.450348 0,-0.110379 -0.45397,-0.643977 -1.00883,-1.185775 l -1.0088,-0.985089 -2.34022,0.179883 c -2.73198,0.209997 -2.96582,-0.215577 -0.39624,-0.721112 0.8685,-0.170867 1.57909,-0.403656 1.57909,-0.517308 0,-0.327334 -1.58845,-1.576596 -2.00467,-1.576596 -0.20711,0 -0.37658,-0.154429 -0.37658,-0.343178 0,-0.188748 -0.44648,-0.758193 -0.99219,-1.265433 -2.12034,-1.970881 -2.06772,-1.947193 -4.38555,-1.974601 -2.03411,-0.02405 -3.96869,-0.426763 -4.52649,-0.942258 -0.50575,-0.467379 0.12695,-0.538089 2.0455,-0.228595 3.3433,0.539334 3.31332,0.148119 -0.1686,-2.200344 -3.02484,-2.040191 -3.97073,-2.835174 -3.37335,-2.835174 0.48733,0 2.66485,1.170194 4.63129,2.488837 0.99682,0.66843 1.85613,1.215329 1.90963,1.215329 0.33957,0 -0.0241,-1.105222 -0.69649,-2.116666 -0.79124,-1.190247 -1.02449,-2.116667 -0.53292,-2.116667 0.4078,0 1.56302,1.898131 2.36283,3.882369 0.6083,1.509149 0.98544,2.015008 2.29333,3.076077 l 1.5653,1.269902 0.0757,-0.873027 c 0.0416,-0.480165 -0.22627,-1.757087 -0.59531,-2.8376 -0.75419,-2.208168 -0.78565,-2.401054 -0.39177,-2.401054 0.48924,0 1.60518,2.849631 1.99737,5.100468 0.35359,2.029309 0.46045,2.25562 1.58961,3.366198 l 1.21055,1.190625 -0.14777,-2.38125 c -0.0813,-1.309687 -0.22725,-2.783371 -0.32438,-3.274853 -0.13737,-0.694966 -0.0953,-0.866908 0.18907,-0.773502 0.59436,0.195191 1.06117,2.020382 1.2196,4.768554 0.10628,1.843831 0.2885,2.802871 0.64347,3.386534 0.27233,0.447839 0.60439,0.746749 0.73787,0.66425 0.56412,-0.348636 0.88947,-3.142501 0.57975,-4.978321 -1.18657,-7.033233 -7.39079,-11.016273 -17.34423,-11.134812 l -2.93325,-0.03493 0.041,1.787864 c 0.0864,3.77091 2.9223,10.23711 5.55501,12.666157 1.661,1.532482 4.66441,2.998911 6.97174,3.403959 1.30926,0.229841 3.81225,0.09039 5.35781,-0.29851 z m -9.92478,-4.187264 c -1.13102,-0.219332 -1.46159,-0.449763 -1.10392,-0.769478 0.41023,-0.36672 5.14172,0.244502 5.14172,0.664216 0,0.397504 -2.23096,0.455665 -4.0378,0.105262 z"
       id="path1" />
  </g>
</svg>
