<?xml version="1.0" encoding="UTF-8" standalone="no"?>
<!-- Created with Inkscape (http://www.inkscape.org/) -->

<svg
   width="200mm"
   height="200mm"
   viewBox="0 0 200 200"
   version="1.1"
   id="svg1"
   inkscape:version="1.4.3 (1:1.4.3+202512261035+0d15f75042)"
   sodipodi:docname="gift_card.svg"
   xmlns:inkscape="http://www.inkscape.org/namespaces/inkscape"
   xmlns:sodipodi="http://sodipodi.sourceforge.net/DTD/sodipodi-0.dtd"
   xmlns="http://www.w3.org/2000/svg"
   xmlns:svg="http://www.w3.org/2000/svg">
  <sodipodi:namedview
     id="namedview1"
     pagecolor="#ffffff"
     bordercolor="#999999"
     borderopacity="1"
     inkscape:showpageshadow="2"
     inkscape:pageopacity="0"
     inkscape:pagecheckerboard="0"
     inkscape:deskcolor="#d1d1d1"
     inkscape:document-units="mm"
     inkscape:zoom="0.32601168"
     inkscape:cx="-65.948558"
     inkscape:cy="616.54233"
     inkscape:window-width="1920"
     inkscape:window-height="1152"
     inkscape:window-x="0"
     inkscape:window-y="25"
     inkscape:window-maximized="1"
     inkscape:current-layer="layer1" />
  <defs
     id="defs1">
    <inkscape:path-effect
       effect="powerclip"
       message=""
       id="path-effect5"
       is_visible="true"
       lpeversion="1"
       inverse="true"
       flatten="false"
       hide_clip="false" />
    <clipPath
       clipPathUnits="userSpaceOnUse"
       id="clipPath2">
      <path
         style="fill:#e5261f;stroke:#e5261f;stroke-width:1.32292;stroke-linecap:round;stroke-linejoin:round"
         d="m -295.20573,23.283492 5.4288,-16.6483 20.2675,-13.7529435 22.55965,-6.2732725 16.52766,5.9113529 -1.93024,12.1846255 -10.97822,14.7180616 -29.31548,10.254389 -15.6832,0.361918 z"
         id="path3" />
    </clipPath>
    <clipPath
       clipPathUnits="userSpaceOnUse"
       id="clipPath4">
      <path
         style="display:block;fill:#e5261f;stroke:#e5261f;stroke-width:1.32292;stroke-linecap:round;stroke-linejoin:round"
         d="m -272.5611,147.91698 -7.38466,-19.46865 -0.22378,-36.475745 4.02802,-19.244871 16.55953,-26.629532 14.76932,-20.139983 18.12598,-8.055993 16.55954,-2.909108 21.48265,9.398658 42.74152,19.244872 23.72042,29.314863 6.93711,23.944199 1.79022,19.24487 -5.59444,21.0351 -14.09799,21.9302 -12.30777,12.75532 -25.73442,10.9651 h -33.56663 l -37.37086,-6.71333 -15.66443,-10.51754 z"
         id="path5" />
    </clipPath>
    <clipPath
       clipPathUnits="userSpaceOnUse"
       id="clipPath6">
      <path
         style="fill:#e5261f;stroke:#e5261f;stroke-width:1.32292;stroke-linecap:round;stroke-linejoin:round"
         d="m 18.599059,115.50995 1.305197,-36.219225 4.56819,-14.683468 84.185214,-24.146147 32.62993,-4.56819 26.43024,18.59906 14.03087,29.693235 v 18.599055 l -0.6526,16.31497 -11.09417,20.23055 -4.56819,14.35717 -5.87339,8.81008 -36.21922,15.33607 -38.17702,-7.50489 -31.324727,-3.91559 -18.27276,-13.70457 -10.767878,-11.74677 z"
         id="path7" />
    </clipPath>
    <clipPath
       clipPathUnits="userSpaceOnUse"
       id="clipPath6-0">
      <path
         style="fill:#e5261f;stroke:#e5261f;stroke-width:1.32292;stroke-linecap:round;stroke-linejoin:round"
         d="m 18.599059,115.50995 1.305197,-36.219225 4.56819,-14.683468 84.185214,-24.146147 32.62993,-4.56819 26.43024,18.59906 14.03087,29.693235 v 18.599055 l -0.6526,16.31497 -11.09417,20.23055 -4.56819,14.35717 -5.87339,8.81008 -36.21922,15.33607 -38.17702,-7.50489 -31.324727,-3.91559 -18.27276,-13.70457 -10.767878,-11.74677 z"
         id="path7-9" />
    </clipPath>
  </defs>
  <g
     inkscape:label="Layer 1"
     inkscape:groupmode="layer"
     id="layer1">
    <path
       style="fill:#e5261f;fill-opacity:1;stroke-width:0.264583"
       d="m 89.270985,198.24917 c -14.95154,-1.95821 -29.7166,-7.36203 -41.46906,-15.17722 -5.43137,-3.61177 -9.16005,-6.60736 -13.65857,-10.97325 -12.30887,-11.94591 -20.87679,-26.11755 -25.5333102,-42.233 -1.89121,-6.54518 -3.17615,-12.82155 -3.8942,-19.02148 -0.39622,-3.42106 -0.39454,-16.609268 0.003,-21.166663 0.7318,-8.395732 3.30965,-19.101038 6.6654302,-27.680232 5.71828,-14.618943 14.5048,-26.978104 26.9475,-37.904435 6.08076,-5.339715 12.15107,-9.38049 19.71868,-13.125982 7.88752,-3.9038261 15.24214,-6.410732 24.06109,-8.201495 6.94546,-1.410335 8.45054,-1.516608 19.602155,-1.384084 9.35447,0.111168 10.30356,0.16627 13.766,0.799246 20.36898,3.7236795 37.36531,12.541694 51.58891,26.765295 12.76459,12.764597 21.28417,28.013074 25.89681,46.350472 2.36625,9.406863 2.8417,14.896227 2.52907,29.197878 -0.17393,7.9561 -0.26403,9.22923 -0.88003,12.43542 -3.40833,17.74015 -9.65094,32.18026 -19.44492,44.97917 -2.42876,3.17394 -14.42214,15.07656 -17.50345,17.37103 -8.37952,6.23969 -17.35746,10.9978 -27.07018,14.34655 -6.4646,2.22891 -15.09332,4.16695 -21.31047,4.78647 -4.00537,0.3991 -16.496945,0.29695 -20.014145,-0.16369 z m 22.087155,-3.24898 c 16.98815,-2.37569 30.73884,-8.08456 44.85243,-18.6213 3.25004,-2.42638 14.40206,-13.75455 17.11026,-17.3805 8.9318,-11.95867 14.57941,-24.79352 17.68663,-40.19484 1.28153,-6.35204 1.58332,-9.88991 1.58332,-18.56123 0,-10.616621 -0.50168,-15.048577 -2.76823,-24.455388 C 187.17775,64.81027 182.03737,53.362331 175.40604,43.680303 171.53627,38.03028 162.58851,28.555183 156.73855,23.912619 144.65468,14.322807 130.35647,7.9826227 114.67099,5.2588352 108.53369,4.1930936 92.424395,4.1241194 86.228275,5.1370555 70.615385,7.6894353 55.553235,14.32138 43.498065,23.951393 c -3.45069,2.756514 -13.03725,12.264367 -15.58326,15.455331 -2.5125,3.148957 -6.36561,9.02588 -8.60931,13.131271 -6.50638,11.905033 -10.8224302,26.624015 -11.6908502,39.869268 -0.36642,5.588635 -0.15316,16.234887 0.40111,20.024457 2.8648802,19.58727 9.2487202,34.74604 20.6911702,49.13225 2.7581,3.46769 10.1273,10.80683 13.73281,13.67682 3.2442,2.58236 8.57388,6.24348 12.12888,8.33167 10.46924,6.14956 23.31323,10.30489 36.49405,11.80669 4.8153,0.54864 15.025795,0.35798 20.295475,-0.37896 z m -16.001735,-3.65072 c -7.65399,-0.29104 -18.12929,-2.50576 -26.14982,-5.52871 -20.03637,-7.55174 -37.76665,-23.47068 -47.28113,-42.45089 -5.06511,-10.10425 -8.72851,-22.30744 -9.80393,-32.65794 -0.47653,-4.58644 -0.39192,-18.063711 0.14119,-22.489581 0.83507,-6.932692 2.8419,-15.164514 5.34431,-21.92192 1.54502,-4.172135 5.62092,-12.452323 8.01877,-16.290184 3.94326,-6.311357 11.57659,-15.521746 12.68681,-15.307937 0.92246,0.17765 0.54966,1.078233 -1.47403,3.560871 -6.54925,8.034531 -8.47216,10.730749 -11.47858,16.094805 -3.55542,6.343545 -5.68849,11.321627 -7.70833,17.989365 -3.36784,11.117633 -4.10173,17.009956 -3.83913,30.823961 0.15216,8.00475 0.47705,10.93753 1.93031,17.42516 2.71159,12.10498 8.756,25.22929 16.10195,34.96234 3.14863,4.17179 12.68484,13.61979 16.86005,16.70409 11.92759,8.81118 25.009,14.31047 39.37551,16.55305 2.45597,0.38338 4.67538,0.47519 11.50938,0.47609 9.007005,0 11.700245,-0.21069 17.112515,-1.34638 12.38429,-2.59869 23.95069,-7.78862 34.21665,-15.3533 4.2908,-3.16177 14.18977,-13.01522 17.40377,-17.32375 8.73696,-11.71234 14.22056,-24.66255 17.01831,-40.19105 0.63498,-3.52428 0.70197,-4.59833 0.82347,-13.1994 0.13348,-9.45055 -0.0212,-12.547207 -0.87167,-17.459726 -2.67587,-15.455132 -9.13361,-30.13829 -18.28361,-41.572126 -2.21856,-2.772299 -7.57357,-8.319032 -10.91539,-11.306151 -6.36156,-5.686354 -13.74841,-10.400041 -22.08646,-14.093754 -9.10844,-4.034999 -16.99885,-5.953474 -28.86133,-7.017363 -5.444905,-0.4883287 -6.112015,-0.6581488 -5.689165,-1.4482476 0.25575,-0.4778798 0.551055,-0.5300371 2.986465,-0.5274865 5.4188,0.00569 13.37906,1.1281568 19.63603,2.7688671 15.38647,4.034679 28.13672,11.423544 39.6993,23.006052 6.07113,6.081599 10.58773,11.981172 14.63786,19.119871 6.26306,11.039264 10.61246,25.019529 11.65675,37.46836 0.55425,6.60699 0.27096,16.784984 -0.66051,23.731934 -1.29463,9.65509 -5.59527,22.36684 -10.55968,31.21197 -7.38309,13.15447 -18.12747,24.47353 -30.65012,32.28946 -7.45048,4.65018 -16.57059,8.59721 -24.65277,10.66932 -7.07908,1.81494 -10.49694,2.30931 -16.93333,2.4493 -3.20147,0.0696 -6.237555,0.15243 -6.746875,0.18399 -0.50933,0.0316 -1.64042,0.0302 -2.51354,-0.003 z m 36.909375,-24.06425 c -1.57922,-0.25731 -4.08183,-1.32141 -5.04333,-2.1444 l -1.04209,-0.89201 v -2.56633 c 0,-1.82933 0.11166,-2.72576 0.38881,-3.12147 0.61002,-0.87093 2.48917,-1.61103 5.60512,-2.20753 1.57829,-0.30215 3.12324,-0.60325 3.43323,-0.6691 0.51715,-0.10988 0.57266,-0.32653 0.67331,-2.6275 0.0969,-2.21493 0.18553,-2.58895 0.75927,-3.20305 1.37991,-1.47695 2.78578,-1.91685 7.16815,-2.24292 4.05479,-0.30171 6.81297,-0.006 8.97152,0.96308 1.86991,0.83918 2.37998,1.36245 2.89851,2.97355 0.33589,1.04367 0.59338,1.33913 1.67592,1.92288 2.30317,1.24204 2.67256,1.79718 2.78072,4.17928 0.1315,2.89584 -0.29607,3.73679 -2.4352,4.78941 -2.08343,1.02521 -3.94536,1.31834 -8.3857,1.32024 l -3.58611,0.003 -0.87554,0.90331 c -1.10672,1.14187 -3.36142,2.15985 -5.57826,2.51857 -1.65005,0.26699 -6.02692,0.32753 -7.40833,0.10245 z m 9.24224,-1.77665 c 1.71426,-0.63622 2.97635,-1.67489 2.87742,-2.368 -0.0931,-0.65264 -0.15629,-0.65418 -2.92687,-0.071 -1.12861,0.23756 -3.33127,0.50757 -4.89479,0.59999 -3.28039,0.19394 -4.03342,0.40333 -4.03342,1.12146 0,1.40539 0.063,1.42526 4.07551,1.28397 2.52381,-0.0888 4.10877,-0.27199 4.90215,-0.56644 z m -9.81485,-0.8086 c 0.14832,-1.30349 -1.38626,-2.05679 -1.69381,-0.83142 -0.22662,0.90291 0.31488,1.79578 1.02753,1.69434 0.41871,-0.0596 0.60185,-0.29681 0.66628,-0.86292 z m -2.60239,-0.70752 c 0,-0.83029 -0.49739,-1.55448 -1.06765,-1.55448 -0.70747,0 -0.69577,1.147 0.0191,1.86174 0.60918,0.60918 1.04868,0.48043 1.04868,-0.30726 z m 12.30312,-2.19268 c 1.52297,-0.46299 3.31917,-1.82861 2.91042,-2.21276 -0.14552,-0.13674 -1.75287,-0.7121 -3.57188,-1.27852 -2.89335,-0.90099 -3.6219,-1.02831 -5.82083,-1.01719 -2.93748,0.0148 -5.89206,0.78864 -6.83212,1.78929 -1.02217,1.08805 -0.29803,1.8161 2.86337,2.87899 1.23415,0.41492 2.03795,0.47048 5.29167,0.36581 2.3268,-0.0749 4.35702,-0.2817 5.15937,-0.52562 z m 9.92188,-0.27223 c 0,-0.50072 -0.12033,-0.9848 -0.26742,-1.07569 -0.14708,-0.0909 -1.3377,-0.23461 -2.64583,-0.31938 l -2.37842,-0.15406 v 0.718 c 0,1.54929 0.32234,1.74156 2.9197,1.74156 h 2.37197 z m 2.64583,0.27062 c 0,-1.56168 -1.10268,-2.09058 -1.60486,-0.76978 -0.37486,0.98599 -0.13361,1.40959 0.8028,1.40959 0.67191,0 0.80206,-0.10382 0.80206,-0.63981 z m 2.46745,-0.19487 c 0.14097,-0.22349 0.17497,-0.73033 0.0756,-1.12633 -0.2097,-0.83555 -0.83372,-0.84056 -1.38345,-0.0111 -0.30641,0.4623 -0.29776,0.62867 0.0592,1.13831 0.45075,0.64352 0.84233,0.64323 1.24865,0 z m 2.41234,-1.07627 c 0.58333,-0.83283 0.52694,-1.52863 -0.12385,-1.52863 -0.33719,0 -0.63534,0.26202 -0.80455,0.70707 -0.49519,1.30244 0.17571,1.89614 0.9284,0.82156 z m -1.78972,-2.57567 c 0.75356,-0.32416 1.58559,-0.82751 1.84896,-1.11852 0.46617,-0.51512 0.45606,-0.54946 -0.38219,-1.29845 -1.24907,-1.11603 -1.99811,-1.01951 -2.7555,0.35515 -0.41789,0.75841 -1.02317,1.3429 -1.85934,1.79539 -0.68185,0.36901 -1.33471,0.77171 -1.45076,0.89492 -0.42288,0.44884 3.26655,-0.0553 4.59883,-0.62849 z m -4.61126,-1.03875 c 1.85475,-0.72922 2.31494,-1.15986 2.31494,-2.16644 0,-0.9213 -0.13261,-0.93403 -2.38125,-0.22825 -1.39991,0.43937 -6.08055,0.98856 -8.8057,1.03317 -0.68945,0.0114 -0.84289,0.70578 -0.32914,1.48984 l 0.44836,0.68429 3.61564,-0.10721 c 2.95753,-0.0877 3.89257,-0.21608 5.13715,-0.7054 z m -10.5531,-0.16547 c 0.25017,-0.65193 -0.29236,-1.71749 -0.87444,-1.71749 -0.78433,0 -1.14001,0.84661 -0.64974,1.54659 0.46149,0.65887 1.30082,0.75298 1.52418,0.1709 z m -2.74238,-1.30173 c 0,-1.27349 -1.11955,-2.3119 -1.47997,-1.37268 -0.21124,0.55049 0.60008,2.27984 1.06958,2.27984 0.29099,0 0.41039,-0.26393 0.41039,-0.90716 z m 12.98144,-2.22974 c 0.80965,-0.31264 1.73353,-0.81198 2.05306,-1.10967 0.80981,-0.75446 0.38071,-1.45065 -1.39515,-2.26367 -3.7384,-1.71151 -12.05798,-1.33556 -14.42997,0.65204 -1.02603,0.85977 -0.89766,1.32072 0.60444,2.17019 1.80498,1.02077 3.64008,1.30252 7.8591,1.20669 3.14883,-0.0715 4.1003,-0.18904 5.30852,-0.65558 z m -91.756915,10.15253 c -0.47062,-0.20457 -1.44668,-0.92477 -2.16901,-1.60043 -1.18069,-1.1044 -1.51894,-1.71384 -3.3489,-6.03383 -4.58456,-10.8228 -27.85919,-68.849235 -28.65568,-71.442046 -1.33517,-4.346416 -0.2491,-7.104433 3.43976,-8.735033 2.10475,-0.930381 27.51012,-8.649441 77.627015,-23.585911 27.64531,-8.239188 31.69767,-9.389216 33.08493,-9.389216 1.48461,0 3.33949,0.910691 4.66881,2.292245 1.14229,1.187148 1.78409,2.573774 13.75704,29.722338 10.15677,23.030392 9.90452,22.489583 10.48999,22.489583 0.74901,0 3.80852,-2.728568 5.05992,-4.512548 1.27402,-1.816258 2.3763,-4.247726 2.38614,-5.263541 0.0172,-1.775778 -5.40782,-5.113708 -9.65099,-5.938123 -3.5052,-0.681011 -3.91666,-0.798248 -4.03366,-1.149191 -0.0585,-0.175472 0.6168,-1.001501 1.50064,-1.835627 0.88382,-0.834125 1.60697,-1.594908 1.60697,-1.690608 0,-0.09573 -0.71437,-1.050501 -1.5875,-2.121773 -0.87312,-1.071245 -1.5875,-2.040361 -1.5875,-2.153576 0,-0.399441 2.98112,-0.199072 5.1153,0.343773 3.20217,0.81452 5.27693,1.905106 7.10837,3.736578 1.94538,1.945349 2.53101,3.186377 3.90798,8.281512 2.03308,7.522924 2.20152,9.605009 1.03026,12.735506 -0.71591,1.913441 -1.56755,3.094938 -4.51403,6.262558 l -2.56564,2.7582 1.71501,4.20312 c 2.39119,5.86041 3.284,8.45703 3.284,9.55132 0,1.74448 -0.58547,3.06078 -1.97543,4.44138 -1.57546,1.56485 3.79122,-0.386 -49.48602,17.98897 -41.243175,14.22447 -54.698525,18.81753 -59.002085,20.14066 -3.20524,0.98544 -5.69688,1.15962 -7.20569,0.50371 z m 11.43902,-3.43278 c 8.96396,-3.05287 8.987,-3.06562 8.34361,-4.61888 -0.31084,-0.75044 -0.35634,-0.7646 -3.0067,-0.93578 -3.59429,-0.23215 -4.93455,-0.51171 -9.30566,-1.94096 -3.32263,-1.08643 -3.96307,-1.21221 -6.21771,-1.22121 -2.24086,-0.009 -2.66559,0.0692 -3.91513,0.72067 -2.26491,1.18084 -2.26125,1.99348 0.0288,6.40133 1.21846,2.34524 1.50655,2.71119 2.56336,3.25615 1.02267,0.52737 1.48922,0.59968 3.3073,0.5126 1.7946,-0.086 3.04259,-0.41674 8.20208,-2.17392 z m 13.22851,-4.64537 c 1.31005,-0.43886 2.55859,-0.90958 2.77453,-1.04606 0.47697,-0.30143 0.20728,-0.98091 -12.71002,-32.02267 C 62.115815,91.015158 62.348785,91.52964 61.203575,91.52964 h -0.63988 l 0.008,4.431771 c 0.0143,7.763559 -0.40133,6.408469 9.09363,29.647649 9.6578,23.63771 12.53547,30.47891 12.82062,30.47891 0.0929,0 1.24083,-0.35906 2.55088,-0.79793 z m -5.95247,-2.19765 c 0,-0.19236 -0.18999,-0.90731 -0.42219,-1.5888 -0.29466,-0.86476 -0.59438,-1.27659 -0.99219,-1.36321 -3.50738,-0.76393 -5.92465,-1.40827 -9.15996,-2.44174 -3.0657,-0.9793 -4.3283,-1.25132 -6.2267,-1.34149 -3.85425,-0.18309 -6.74597,0.58576 -7.87113,2.0928 -0.48253,0.6463 -0.48106,0.69139 0.0702,2.16467 0.30962,0.82753 0.62249,1.5046 0.69526,1.5046 0.0728,0 0.64653,-0.30136 1.27502,-0.66966 1.52352,-0.89286 4.64664,-1.53146 6.35526,-1.29953 0.73013,0.0991 2.99439,0.68668 5.03168,1.30567 3.21432,0.97663 4.42929,1.28632 7.14375,1.82086 0.29104,0.0573 1.33284,0.11801 2.3151,0.13489 1.31963,0.0228 1.78594,-0.0606 1.78594,-0.31906 z m 17.4626,-1.74072 c 9.707125,-3.40876 8.863335,-2.90775 9.160865,-5.43931 l 0.17629,-1.50003 -1.15184,-1.17364 c -1.0837,-1.10421 -1.23722,-1.17363 -2.59487,-1.17363 -2.00536,0 -3.172745,0.75874 -5.765965,3.74755 -2.15304,2.4815 -4.07647,4.38431 -6.04229,5.97747 -1.02086,0.82735 -1.04014,0.87178 -0.54474,1.25489 0.28247,0.21844 0.58018,0.39717 0.66156,0.39717 0.0814,0 2.82682,-0.9407 6.10099,-2.09047 z m -6.25244,-1.05932 c 1.11953,-0.73808 3.41705,-3.02794 5.62157,-5.60287 2.34193,-2.73539 3.98425,-3.75835 6.033885,-3.75835 2.8031,0 4.25119,1.48167 4.6586,4.7666 0.11602,0.93562 0.26548,1.75564 0.33213,1.82227 0.15914,0.15917 5.25155,-1.46587 5.6796,-1.8124 0.94027,-0.76126 -0.26506,-3.56621 -2.65171,-6.17082 -1.15361,-1.25897 -2.07156,-1.95096 -3.57092,-2.69201 -1.90813,-0.94305 -2.15596,-0.99742 -4.54544,-0.99742 -2.250435,0 -2.686635,0.0816 -3.982455,0.74504 -1.92693,0.98658 -3.34046,2.40591 -5.582,5.60496 -1.01966,1.45521 -2.45148,3.40772 -3.18183,4.3389 -1.40776,1.79488 -1.49041,2.29566 -0.60486,3.66474 0.46852,0.72435 0.80712,0.7416 1.79343,0.0914 z m -13.21049,-2.20802 c -0.26724,-0.86511 -2.08538,-5.44267 -3.46635,-8.72728 -1.18659,-2.82229 -1.20114,-2.842 -2.29551,-3.10947 -5.18642,-1.26754 -6.20478,-1.88955 -11.6387,-7.1088 -4.55972,-4.37959 -6.42547,-5.96267 -10.48106,-8.89314 -2.42432,-1.75173 -2.46667,-2.17186 -0.0984,-0.97637 2.27698,1.1494 5.74139,3.94645 10.66276,8.60872 2.39942,2.27309 4.48302,4.13158 4.63021,4.12999 0.14719,-0.003 0.69202,-0.68622 1.21074,-1.52136 0.62277,-1.00266 1.29682,-1.70531 1.98438,-2.06856 1.27147,-0.67178 1.29097,-1.13252 0.15406,-3.63993 -0.74241,-1.63734 -0.85943,-1.76307 -1.64108,-1.76307 -0.68655,0 -1.15242,0.31694 -2.52793,1.71979 -0.92744,0.94588 -1.74679,1.71979 -1.82076,1.71979 -0.074,0 -0.1345,-0.25625 -0.1345,-0.56944 0,-0.56536 1.8822,-2.57961 3.67095,-3.92848 l 0.87717,-0.66146 -0.67,-1.77345 c -0.3685,-0.97538 -1.41261,-3.56499 -2.32025,-5.75468 -1.50608,-3.63342 -2.08704,-4.63479 -2.08704,-3.59738 0,0.78586 -0.58048,3.05572 -0.78145,3.05572 -0.11464,0 -1.28352,-1.01203 -2.5975,-2.24896 -1.31398,-1.23692 -2.56644,-2.24895 -2.78324,-2.24895 -0.2168,0 -1.09188,0.50789 -1.94464,1.12866 -3.86214,2.81143 -3.92227,2.8049 -3.69151,-0.40106 0.0969,-1.34607 0.2487,-3.14978 0.33736,-4.00825 0.10591,-1.02561 0.0692,-1.50403 -0.10693,-1.39515 -0.32675,0.20196 -4.12206,5.91635 -6.41162,9.65364 -1.91552,3.12674 -2.07302,4.02524 -1.03543,5.90674 0.51392,0.93195 1.38204,1.66302 4.51213,3.79979 4.2837,2.92431 8.06262,5.87605 9.24121,7.21839 0.42221,0.48088 1.13908,1.61009 1.59304,2.50939 0.77631,1.53786 0.8173,1.76485 0.68926,3.81711 -0.10677,1.71128 -0.28485,2.43579 -0.8255,3.35833 -0.74497,1.27119 -2.35238,2.78046 -3.9322,3.69208 -0.54458,0.31425 -0.99107,0.77568 -0.99219,1.02542 -0.003,0.59521 0.8261,2.32407 1.1141,2.32407 0.1234,0 0.78596,-0.2812 1.47235,-0.62486 0.68638,-0.3437 1.90282,-0.83484 2.70318,-1.09149 0.80037,-0.25662 1.71595,-0.70384 2.03464,-0.99383 0.31868,-0.28995 1.08261,-1.70563 1.69762,-3.14595 1.8031,-4.22275 2.53356,-4.1339 1.03024,0.12534 -1.02995,2.91806 -1.02339,3.26268 0.0661,3.4753 0.47294,0.0923 1.97404,0.41209 3.33578,0.7107 2.96543,0.65021 2.9941,0.63341 3.45689,-2.02708 0.17719,-1.01865 0.49131,-2.20927 0.69806,-2.64584 0.33896,-0.71577 0.36053,-0.46267 0.21953,2.5762 l -0.15637,3.36992 0.75404,0.30506 c 1.30157,0.52658 4.41501,1.24966 5.46823,1.26998 0.92881,0.018 0.99523,-0.0284 0.82611,-0.57584 z m -10.96425,-7.60677 c 0,-0.14553 0.17859,-0.26459 0.39687,-0.26459 0.21828,0 0.39688,0.11906 0.39688,0.26459 0,0.14552 -0.1786,0.26458 -0.39688,0.26458 -0.21828,0 -0.39687,-0.11906 -0.39687,-0.26458 z m -6.87917,-18.66162 c 0,-0.63656 0.66752,-2.07148 1.14964,-2.47129 0.38091,-0.31591 0.4371,-0.29871 0.43205,0.13229 -0.008,0.71009 -0.97505,2.74437 -1.30417,2.74437 -0.15264,0 -0.27752,-0.18243 -0.27752,-0.40537 z m -3.96875,-2.52066 c 0,-1.00137 0.0993,-1.54175 0.26458,-1.4396 0.14553,0.0899 0.26459,0.81135 0.26459,1.60311 0,0.79179 -0.11906,1.4396 -0.26459,1.4396 -0.14727,0 -0.26458,-0.71075 -0.26458,-1.60311 z m 33.28111,26.10085 c 0.4357,-0.49622 1.6676,-2.13333 2.73755,-3.63802 3.33593,-4.69132 5.60709,-6.43326 8.932125,-6.85075 5.59085,-0.70202 10.44641,2.16784 13.07957,7.73062 0.60722,1.28281 1.17956,2.33352 1.2719,2.33495 0.27284,0.004 15.54435,-5.09185 21.03258,-7.01841 l 5.06084,-1.77655 8.22386,-16.70177 c 8.8414,-17.95592 12.21367,-24.989365 12.21375,-25.473896 2e-5,-0.16801 -0.68456,-0.688499 -1.5213,-1.156626 -3.01292,-1.68566 -8.98234,-5.805223 -11.57552,-7.988459 -3.17204,-2.670572 -4.85617,-3.910912 -5.31011,-3.910912 -0.18476,0 -0.52726,0.576078 -0.76113,1.280187 -0.65064,1.958895 -2.20535,3.21773 -3.97404,3.21773 -1.18787,0 -2.39723,-0.496438 -3.52414,-1.446636 -1.43209,-1.207532 -1.68617,-1.999509 -1.9189,-5.981382 -0.21611,-3.697288 -0.64402,-5.271982 -1.43256,-5.271982 -0.57112,0 -1.80789,1.656239 -3.3316,4.461616 -3.06157,5.636762 -3.40249,5.950267 -8.22375,7.562665 -4.396,1.470157 -5.71897,1.338844 -11.99952,-1.191181 -1.74929,-0.704665 -4.22738,-1.48545 -5.50691,-1.735085 -2.319845,-0.452622 -2.660765,-0.883417 -0.70575,-0.891884 1.43063,-0.0061 3.58953,0.635477 7.45303,2.215171 3.72176,1.521751 5.42919,1.921166 6.97386,1.631395 1.16652,-0.218864 0.96086,-0.556922 -1.03135,-1.695583 -1.59012,-0.908843 -3.54407,-2.83583 -4.7553,-4.68966 -0.46882,-0.717497 -1.08699,-1.335828 -1.37726,-1.377553 -0.48649,-0.06996 -10.990145,3.143594 -24.736035,7.567851 -6.53173,2.1023 -7.75576,2.5781 -7.62692,2.96463 0.0509,0.152796 1.46992,0.914108 3.15329,1.691798 3.62718,1.675739 5.341,2.711821 5.19754,3.142218 -0.0574,0.17235 -1.34516,0.746575 -2.86158,1.276086 -2.10924,0.736494 -2.77547,1.083151 -2.83521,1.475211 -0.043,0.281887 0.22494,1.678807 0.59531,3.104276 0.37037,1.425496 0.6734,2.816885 0.6734,3.092005 0,0.97538 0.22049,1.08624 -8.41807,-4.232623 -3.86486,-2.379636 -6.30101,-3.65506 -6.53483,-3.421222 -0.17802,0.178012 3.8889,10.381115 7.58542,19.030315 l 0.52098,1.21899 2.29438,0.17637 c 1.44986,0.11144 2.70196,0.37367 3.40169,0.71239 1.45893,0.70625 3.15183,2.57524 3.98905,4.40396 0.7507,1.63976 1.11351,3.77868 0.64095,3.77868 -0.16138,0 -1.18013,-0.29766 -2.26387,-0.66146 -1.08375,-0.3638 -2.51501,-0.66146 -3.18058,-0.66146 -1.43554,0 -1.48855,0.20627 -0.60668,2.36021 l 0.58719,1.43418 1.70545,0.3457 c 3.00548,0.60926 5.4403,2.67653 6.12168,5.19758 0.5271,1.95027 0.19149,4.84151 -0.81562,7.02644 -1.00396,2.17813 -1.04795,1.81189 0.72779,6.05933 1.04694,2.5042 1.42213,2.68512 2.65535,1.28055 z m 33.298215,-5.60265 c -2.34023,-0.56648 -4.44452,-1.67704 -8.2387,-4.34806 -4.01814,-2.82869 -4.22992,-2.94815 -6.56156,-3.70144 -2.17082,-0.70131 -2.3464,-1.18925 -0.35393,-0.98359 1.85568,0.1915 3.56584,1.08267 7.50594,3.91123 3.84561,2.76077 5.39329,3.53277 8.74755,4.36335 1.38377,0.34263 2.6408,0.74787 2.79344,0.90048 0.4051,0.4051 -1.99414,0.31761 -3.89274,-0.14197 z M 88.611255,138.9562 c 0.001,-0.10914 0.38717,-1.50812 0.85825,-3.10885 0.77338,-2.62795 0.85457,-3.23141 0.83647,-6.21771 -0.0174,-2.87404 -0.11401,-3.58108 -0.73733,-5.39729 -0.72408,-2.10976 -2.10251,-4.64285 -3.64894,-6.70555 -0.46291,-0.61745 -0.76915,-1.19515 -0.68053,-1.28375 0.47861,-0.47861 2.87774,2.36079 4.15654,4.91929 1.51637,3.03382 1.72761,4.05511 1.72401,8.33501 -0.004,4.25167 -0.28163,5.9268 -1.37237,8.26823 -0.56076,1.20374 -1.14153,1.81237 -1.1361,1.19062 z m 34.557725,-4.06458 c -2.14871,-0.50443 -5.45529,-2.41197 -5.45529,-3.14709 0,-0.2667 0.0609,-0.24397 2.71397,1.01352 2.23784,1.06066 4.58846,1.62427 6.81103,1.63308 2.09106,0.008 3.70417,0.25427 3.70417,0.56478 0,0.30091 -6.44538,0.2476 -7.77388,-0.0643 z m -23.976125,-4.71736 c 0,-0.57288 5.132605,-6.55693 6.394955,-7.4558 1.13446,-0.8078 0.90229,-0.1987 -0.64026,1.67978 -3.42218,4.16746 -5.754695,6.50862 -5.754695,5.77602 z M 113.3386,129.0017 c -0.72893,-0.49088 -1.48603,-1.08619 -1.68251,-1.32291 -0.30856,-0.3718 -0.28874,-0.4304 0.14549,-0.4304 0.75827,0 3.26628,1.86645 3.26628,2.43075 0,0.38106 -0.37647,0.23358 -1.72926,-0.67744 z m -17.743925,-3.37238 c 0.23708,-2.55553 0.70076,-4.97231 0.98804,-5.14987 0.31812,-0.19661 0.23464,3.10798 -0.13039,5.16165 -0.17776,1.0001 -0.45382,1.74963 -0.6705,1.82052 -0.30298,0.0991 -0.33618,-0.22593 -0.18715,-1.8323 z M 137.75959,98.409945 c -2.82851,-0.851668 -6.05198,-4.722045 -7.65289,-9.188715 -0.85204,-2.377228 -1.04688,-10.127006 -0.25461,-10.127006 0.12213,0 0.28295,1.28397 0.35732,2.853293 0.10329,2.179188 0.26604,3.109701 0.68892,3.938587 1.07754,2.112196 3.98106,3.784071 6.93926,3.995738 2.44078,0.174625 4.2745,-0.413941 6.366,-2.043351 1.29281,-1.007136 1.70979,-1.21666 1.78033,-0.894529 0.1206,0.550677 -0.80862,1.457272 -2.8898,2.819426 -1.20534,0.788935 -1.7534,1.331727 -1.91691,1.898544 -0.12597,0.436563 -0.42638,1.210469 -0.66762,1.719792 -0.41503,0.87622 -0.51766,0.930222 -1.90839,1.003855 -1.22664,0.06493 -1.55485,-0.01614 -1.9839,-0.490273 l -0.51411,-0.56806 1.49378,0.186637 c 1.30964,0.163618 1.56234,0.118057 2.05002,-0.369649 0.30597,-0.305938 0.55629,-0.740939 0.55629,-0.966629 0,-0.44159 -1.48786,-1.177131 -2.38112,-1.177131 -0.89961,0 -3.61913,-1.010814 -4.99166,-1.855338 -2.24115,-1.378982 -2.38143,-1.042696 -0.84402,2.023137 1.99367,3.975734 5.58448,6.956663 7.99108,6.633871 1.40938,-0.189045 2.80916,-1.320641 3.43255,-2.774924 0.38036,-0.887359 0.59367,-1.125828 0.81184,-0.907653 0.40437,0.404363 -0.44471,2.602442 -1.31781,3.411617 -1.10029,1.019731 -3.38201,1.409462 -5.14455,0.878761 z m -18.57658,-4.300617 c 0.26458,-0.865214 2.91467,-5.330772 3.4051,-5.737807 0.33822,-0.28067 0.41725,-0.281596 0.41725,-0.005 0,0.381397 -2.164,4.48048 -2.96185,5.61041 -0.62378,0.883391 -1.11323,0.958638 -0.8605,0.132292 z m 7.14594,-1.517703 c -0.18714,-2.145295 0.0539,-3.39344 0.40905,-2.117646 0.26961,0.968666 0.274,4.230661 0.006,4.230661 -0.12673,0 -0.31337,-0.950859 -0.41476,-2.113015 z m 25.95872,1.385411 c -0.0647,-0.10914 -0.20195,-0.823515 -0.30501,-1.5875 -0.19524,-1.447403 0.11581,-1.869334 0.64672,-0.877279 0.54409,1.016609 0.21349,3.401166 -0.34171,2.464779 z m -4.56594,-1.730454 c 0.081,-0.697098 0.2925,-1.530535 0.47001,-1.852083 0.29432,-0.533162 0.33176,-0.54155 0.42497,-0.0952 0.15539,0.744167 -0.16867,2.135716 -0.63016,2.705734 -0.38314,0.473261 -0.40171,0.420053 -0.26482,-0.758454 z m -35.14807,-1.747599 c -0.4731,-0.185341 -0.4763,-0.212593 -0.0445,-0.378275 0.58997,-0.226404 2.73375,-0.225319 3.58285,0.0026 0.5995,0.160337 0.60926,0.188013 0.13229,0.37465 -0.66307,0.259503 -3.00995,0.260641 -3.67064,0.0026 z m -7.68498,-3.113511 c -1.65071,-0.649658 -3.14198,-1.019784 -4.894785,-1.214888 -2.86922,-0.319325 -3.45874,-0.588433 -1.87519,-0.85598 2.356715,-0.398171 6.097875,0.497946 8.876005,2.126007 2.16659,1.269709 1.19573,1.244282 -2.10603,-0.05514 z M 53.754135,142.60695 c 1.368,-0.86757 2.6508,-2.47177 3.12464,-3.9075 0.40788,-1.2359 0.18619,-4.2009 -0.39866,-5.33186 -0.99458,-1.92331 -4.382,-4.92122 -9.71138,-8.59472 -2.6509,-1.82724 -3.13838,-2.03655 -3.13838,-1.34747 0,0.7584 6.1876,15.78507 6.55849,15.92739 0.60074,0.23053 1.66942,-1.07358 1.82396,-2.22576 0.10019,-0.74697 -0.0305,-1.44814 -0.45268,-2.42967 -0.66036,-1.53503 -0.54946,-1.97093 0.30721,-1.20758 1.87862,1.67394 1.60447,4.9902 -0.56335,6.81429 -0.81349,0.6845 -0.81476,0.68974 -0.37541,1.55464 0.92109,1.81321 1.07994,1.85528 2.82556,0.74824 z m 30.9384,-5.85542 c 0.25012,-0.65161 0.455,-1.94429 0.46302,-2.92145 0.0315,-3.83209 -1.83346,-6.37479 -5.129,-6.99301 l -1.01774,-0.19095 0.19121,0.76417 c 0.76522,3.05808 4.19249,10.79333 4.70643,10.6223 0.1856,-0.0618 0.53933,-0.63822 0.78608,-1.28106 z m -13.12835,-2.50507 c -0.33904,-1.35083 -2.24426,-5.14596 -2.58288,-5.14501 -0.56968,0.003 -2.00734,0.98399 -2.46723,1.68587 -0.65809,1.00436 -0.59672,2.3014 0.13226,2.79504 0.96155,0.65111 2.9506,1.29603 4.06635,1.31844 0.96558,0.0193 1.0117,-0.0161 0.8515,-0.65434 z M 147.875,133.72121 c 1.92702,-0.66006 3.84998,-1.37917 4.27326,-1.59806 0.64141,-0.33168 1.47857,-1.8398 5.02521,-9.05253 4.86775,-9.89952 8.62203,-17.76606 9.92632,-20.79929 l 0.89897,-2.09061 -0.42775,-1.481268 c -0.65466,-2.26703 -2.70335,-6.376062 -3.17902,-6.376062 -0.27583,0 -2.54095,4.319191 -6.97254,13.29531 -8.23553,16.68095 -14.04117,28.68597 -14.04117,29.03458 0,0.4812 0.93879,0.28663 4.49672,-0.93207 z m 15.26305,-5.26931 c 9.46166,-3.21249 10.82146,-3.7655 11.98832,-4.8755 2.0202,-1.92178 1.77403,-3.84681 -1.43716,-11.23855 -3.24125,-7.46096 -4.3126,-9.69571 -4.6482,-9.69571 -0.46741,0 -13.22732,26.57303 -13.22732,27.5464 0,0.2747 0.16614,0.49943 0.36923,0.49943 0.20307,0 3.33288,-1.00623 6.95513,-2.23607 z m -80.349355,-7.29946 c 0,-1.61904 -2.78941,-4.88802 -4.83872,-5.67065 -0.645,-0.24633 -1.66562,-0.40259 -2.32305,-0.35566 -1.1158,0.0797 -1.16989,0.12121 -1.11648,0.85744 0.0309,0.42555 0.36804,1.62896 0.74927,2.67422 l 0.69314,1.90048 2.16115,0.15652 c 1.18863,0.0861 2.6374,0.33282 3.21948,0.5483 1.40441,0.51988 1.45521,0.51602 1.45521,-0.11065 z m -41.53959,-7.51379 c 0.65017,-0.89324 6.46071,-9.96667 7.26154,-11.3392 0.40714,-0.69778 0.67456,-1.33442 0.59426,-1.4147 -0.0803,-0.0803 -0.92368,0.23683 -1.87416,0.70477 -2.05264,1.0105 -3.59386,1.23391 -5.44645,0.78947 -1.26821,-0.30422 -1.40386,-0.28787 -1.96215,0.23661 -0.32987,0.30991 -1.10997,1.45518 -1.73357,2.54508 l -1.1338,1.98163 1.21566,3.10774 c 1.73398,4.43275 2.0586,4.79004 3.07867,3.3886 z m 17.87528,-11.86548 c -0.20589,-8.890689 -0.32104,-10.060861 -1.00299,-10.192174 -0.61161,-0.117792 -2.42773,1.834727 -3.62864,3.901175 -1.33114,2.290498 -2.21673,4.822979 -2.87388,8.218299 -1.15839,5.98514 -1.0794,6.1594 1.80107,3.9727 l 1.71979,-1.30559 1.8498,1.84145 c 1.01739,1.01279 1.95707,1.84144 2.08817,1.84144 0.14043,0 0.15961,-3.40066 0.0467,-8.2773 z m -21.334,0.97909 c 0.73813,-1.1036 1.34206,-2.25018 1.34206,-2.54794 0,-0.481089 -0.1253,-0.526836 -1.12448,-0.410604 -1.71536,0.199522 -3.10886,0.872804 -3.10886,1.502094 0,0.73128 1.04346,3.463 1.32279,3.463 0.12454,0 0.83036,-0.90295 1.56849,-2.00655 z m 137.139985,-0.44085 c 3.07993,-3.07541 4.45026,-5.893328 4.40679,-9.061978 -0.0225,-1.632373 -0.52837,-3.629448 -0.95475,-3.768354 -0.17475,-0.05696 -0.95885,0.886698 -1.74244,2.096981 -1.53259,2.367201 -4.7272,5.950638 -5.83207,6.541955 -0.37325,0.199761 -0.74335,0.531839 -0.82246,0.73795 -0.15992,0.416718 1.19166,4.109986 1.84478,5.040946 0.22971,0.32742 0.52935,0.59531 0.6659,0.59531 0.13653,0 1.23196,-0.98226 2.43425,-2.18281 z M 45.998655,100.49018 c 2.69509,-1.346757 9.00591,-7.902206 7.60732,-7.902206 -0.50698,0 -4.93242,2.185432 -6.64888,3.283426 -2.01938,1.291775 -3.60951,2.784528 -4.02601,3.779388 -0.77229,1.844732 0.4089,2.167942 3.06757,0.839392 z m -3.76872,-2.338125 c 1.46708,-2.063432 4.00903,-3.846591 8.75904,-6.144392 2.89026,-1.398164 3.7666,-1.937808 3.70168,-2.279412 -0.11286,-0.593936 -2.34539,-0.738981 -4.79347,-0.311441 -0.99163,0.173197 -1.88039,0.237464 -1.97501,0.142822 -0.47024,-0.470217 0.55032,-1.108286 2.48364,-1.552786 1.14845,-0.264054 2.25067,-0.63926 2.44938,-0.833782 1.29279,-1.265502 -6.14378,-2.246286 -11.02556,-1.454097 -4.02687,0.653442 -6.66594,2.264146 -6.66594,4.068419 0,0.192219 0.81123,1.704657 1.80273,3.360975 0.9915,1.656318 2.24748,3.81516 2.79107,4.797425 0.54359,0.982266 1.07182,1.782763 1.17383,1.7789 0.10202,-0.004 0.68639,-0.711544 1.29861,-1.572631 z m -6.26027,0.522314 c 0.51605,-0.143351 1.15511,-0.419232 1.42014,-0.613013 0.46167,-0.337582 0.46243,-0.390419 0.0182,-1.259231 -0.25503,-0.498766 -0.87591,-1.531938 -1.37973,-2.295922 -0.86262,-1.308074 -0.98051,-1.389063 -2.02205,-1.389063 -0.60831,0 -1.3636,0.18042 -1.67842,0.400924 -0.5712,0.400076 -0.57139,0.403807 -0.0897,1.785937 1.13518,3.256889 1.35265,3.634052 2.09439,3.632491 0.38438,0 1.1211,-0.118771 1.63714,-0.262123 z m 41.9918,-0.331708 c -0.0695,-0.327422 -0.34393,-1.389565 -0.60977,-2.360321 -0.60556,-2.211282 -0.47124,-2.408185 2.16514,-3.174233 1.07192,-0.311441 1.94894,-0.649367 1.94894,-0.750914 0,-0.239474 -2.91891,-1.575673 -6.0076,-2.750132 -3.27165,-1.244044 -5.87499,-1.74617 -9.05329,-1.74617 -2.58433,0 -2.67019,0.01958 -3.58303,0.82116 -0.51438,0.451644 -0.93525,0.964512 -0.93525,1.139719 0,0.175208 1.39151,1.085612 3.09224,2.02311 1.70073,0.937499 5.18331,2.974102 7.73907,4.525751 2.55575,1.551676 4.80953,2.831597 5.00839,2.844271 0.23959,0.01535 0.31892,-0.177774 0.23516,-0.572241 z m 84.526765,-6.698747 c 1.04222,-1.88513 0.9702,-2.230332 -0.65556,-3.142192 -2.96357,-1.662271 -9.15074,-5.984478 -10.67964,-7.460562 -2.07769,-2.005912 -2.82972,-3.807116 -2.85649,-6.841728 -0.0167,-1.904418 0.0765,-2.315659 0.93091,-4.101041 0.52226,-1.091407 1.4002,-2.520156 1.95101,-3.175 1.44611,-1.719236 1.62684,-2.219828 1.09479,-3.031861 -0.53387,-0.81481 -0.50877,-0.814096 -3.14891,-0.09054 l -2.12278,0.581739 -0.76806,1.693942 c -0.42243,0.931651 -1.1295,3.140393 -1.57123,4.908338 -0.91088,3.645483 -1.28489,4.347766 -1.28214,2.407444 0.003,-1.265899 0.61537,-4.17105 1.44222,-6.828472 l 0.39997,-1.285478 -0.85588,0.161104 c -1.56495,0.294588 -6.33872,1.958446 -6.72383,2.343547 -0.28757,0.287576 -0.84685,2.570665 -1.13426,4.630341 -0.005,0.03638 -0.1283,0.06615 -0.27382,0.06615 -0.15436,0 -0.26459,-0.881936 -0.26459,-2.116667 0,-2.364502 -0.009,-2.373021 -1.9141,-1.802236 -1.5807,0.473578 -1.8964,1.132549 -1.5023,3.135736 0.36399,1.850073 1.45383,3.647017 2.92439,4.82182 0.52974,0.423201 2.18559,1.232984 3.67961,1.799537 3.53676,1.341173 5.66131,2.626809 9.16297,5.544872 1.57464,1.312175 4.82751,3.711284 7.2286,5.331302 2.40109,1.620043 4.65365,3.168703 5.00568,3.441461 0.35203,0.272759 0.76875,0.454846 0.92604,0.404654 0.1573,-0.05022 0.61063,-0.678497 1.0074,-1.396206 z m -23.0787,-18.827062 c 0,-0.275378 0.18068,-0.731784 0.40153,-1.014254 0.37896,-0.484716 0.39756,-0.462676 0.33073,0.392086 -0.0738,0.944351 -0.73226,1.503786 -0.73226,0.622168 z M 32.923235,91.675426 c 0.88394,-0.369332 0.91754,-0.434896 0.91754,-1.790647 0,-1.883013 0.78843,-3.023606 2.84929,-4.12205 2.15669,-1.149508 4.8105,-1.659625 9.18925,-1.766411 2.03729,-0.04966 3.91253,-0.101415 4.16719,-0.114961 0.25466,-0.01349 0.46302,-0.173488 0.46302,-0.355389 0,-0.472175 -3.84199,-9.887426 -4.35278,-10.666994 -0.49281,-0.752105 -0.32699,-0.77171 -5.03993,0.595894 -5.84102,1.694948 -10.04322,3.0675 -11.28483,3.685937 -2.20534,1.098418 -3.11933,2.967805 -2.59546,5.308468 0.34964,1.5621 2.70013,7.569226 3.42361,8.749638 0.58848,0.960147 0.93232,1.032563 2.2631,0.476515 z m 26.20081,-2.409931 c 0.86457,-0.517684 1.80492,-1.170675 2.08967,-1.451134 0.51383,-0.506042 0.51339,-0.518795 -0.0579,-1.694709 -0.76495,-1.574509 -2.37057,-3.321261 -3.05291,-3.321261 -0.82214,0 -2.6343,0.956495 -3.47536,1.834382 l -0.74478,0.777373 0.86147,1.406101 c 1.02847,1.678702 2.3493,3.390477 2.61612,3.390477 0.10547,0 0.89914,-0.423545 1.7637,-0.941229 z m 103.153205,-2.5645 c -0.25032,-0.798222 -3.37883,-7.968456 -5.33921,-12.236979 -0.8831,-1.92286 -1.73667,-3.439584 -1.93569,-3.439584 -0.49927,0 -1.09379,2.193132 -0.89654,3.307292 0.0902,0.509323 0.52006,1.55112 0.95533,2.315104 0.849,1.490186 0.56216,1.933152 -0.51162,0.790125 -1.71207,-1.822397 -1.79642,-5.564637 -0.16603,-7.366185 0.45516,-0.502946 0.44662,-0.573881 -0.23656,-1.966859 -0.38982,-0.794809 -0.88477,-1.445102 -1.09993,-1.445102 -0.53229,0 -2.34373,2.450545 -3.20979,4.342316 -0.63696,1.391285 -0.6948,1.7653 -0.57357,3.708505 0.25591,4.101809 1.66518,5.69431 9.37824,10.59733 3.35793,2.134553 3.93724,2.356697 3.63537,1.394037 z M 104.31932,76.558193 c 35.71002,-11.375681 43.63456,-13.941399 45.48169,-14.725571 1.45198,-0.616399 1.45103,-0.503264 0.0299,-3.608387 l -0.89347,-1.952281 -0.99367,0.162242 c -1.07534,0.175578 -1.56146,0.327025 -36.31554,11.314589 -33.590675,10.61974 -33.101635,10.450036 -33.471085,11.614097 -0.32062,1.010179 -2.89888,3.2943 -5.35894,4.747604 -1.34474,0.794411 -2.44498,1.59467 -2.44498,1.77837 0,0.267467 0.65411,0.574675 1.81918,0.854419 0.0547,0.01323 14.52075,-4.570174 32.146865,-10.185082 z m -35.420475,7.727764 c 4.6214,-1.874176 8.19927,-4.657486 8.01547,-6.235488 -0.0638,-0.547608 -0.24051,-0.691674 -0.93017,-0.758322 -1.70659,-0.164915 -4.44784,1.58615 -8.47678,5.414777 -3.20269,3.043476 -2.94386,3.33719 1.39148,1.579033 z m -3.12687,-2.051288 c 1.57383,-1.474205 3.45682,-3.158357 4.18443,-3.742531 1.29753,-1.041744 4.68356,-2.837497 5.35034,-2.837497 0.74149,0 0.25274,-0.973297 -1.44923,-2.886022 -0.98309,-1.104821 -2.48144,-2.812442 -3.32967,-3.794707 -1.29965,-1.50503 -1.67397,-1.785779 -2.37975,-1.784959 -1.67448,0.0026 -3.48916,1.724369 -5.29545,5.026104 -1.88974,3.454268 -3.2989,8.128159 -2.82578,9.372574 0.39128,1.029123 0.83452,0.830924 1.92401,-0.860346 1.2559,-1.949582 2.078,-2.73804 2.55042,-2.446073 0.27786,0.171741 0.0178,0.790284 -1.16676,2.775347 -1.35236,2.266183 -1.4908,2.627895 -1.22721,3.206406 0.16341,0.358643 0.41096,0.652092 0.55012,0.652092 0.13916,0 1.5407,-1.206182 3.11453,-2.680388 z m 74.396515,1.521222 c 0.54647,-0.494533 1.1998,-2.47568 1.05248,-3.19143 -0.0589,-0.285962 -1.00388,-0.803593 -2.64165,-1.44698 -1.40248,-0.550942 -2.96434,-1.257803 -3.47081,-1.570831 -0.50646,-0.313002 -1.04613,-0.569093 -1.1993,-0.569093 -0.82198,0 -0.48982,4.315513 0.42741,5.553208 0.89987,1.214278 2.39596,1.888913 3.94433,1.778635 0.81907,-0.05834 1.5903,-0.284507 1.88754,-0.553509 z m 36.98753,-0.743029 c -0.38053,-3.212941 -2.76971,-6.066869 -6.6294,-7.918847 -2.15125,-1.032245 -4.39418,-1.609116 -4.39418,-1.130141 0,0.127026 0.43522,0.862885 0.96714,1.635231 l 0.96715,1.404249 -0.96715,0.990441 c -0.53192,0.544751 -0.96714,1.11977 -0.96714,1.277859 0,0.158062 0.7973,0.48768 1.77181,0.732472 2.16914,0.544856 4.97047,1.817529 7.22429,3.282024 0.93083,0.604864 1.80441,1.099741 1.94128,1.099741 0.1443,0 0.18052,-0.576739 0.0862,-1.373029 z M 55.320425,82.255757 c 1.21031,-0.735013 2.28117,-1.419622 2.3797,-1.521355 0.0985,-0.101732 -0.79535,-2.506688 -1.9864,-5.344345 -1.87059,-4.456668 -2.25027,-5.171413 -2.78769,-5.247719 -0.34218,-0.04858 -1.62119,0.223176 -2.84225,0.603885 -2.01567,0.628438 -2.22009,0.753771 -2.22009,1.36099 0,0.867913 3.85212,10.301288 4.55481,11.154198 0.40092,0.486622 0.50275,0.451353 2.90192,-1.005654 z m 66.694785,0.613674 c 1.43145,-0.568298 3.03115,-2.494677 4.66164,-5.613585 0.7824,-1.496642 1.91789,-3.332348 2.52331,-4.079399 2.25978,-2.788338 2.47277,-3.344306 1.27968,-3.340047 -0.89233,0.0032 -3.41434,1.147578 -4.26016,1.933152 -0.34216,0.317791 -1.26868,1.673754 -2.05891,3.013234 -2.20197,3.73245 -3.22501,4.576021 -5.54961,4.576021 -1.04063,0 -1.34085,-0.14605 -2.4684,-1.200705 -0.70602,-0.6604 -1.42973,-1.553369 -1.60825,-1.984375 -0.26863,-0.648494 -0.47786,-0.78367 -1.21319,-0.78367 -1.26656,0 -3.01596,0.753983 -3.01596,1.299845 0,0.682705 1.34842,2.654406 2.77191,4.053047 2.62885,2.583047 5.8548,3.350551 8.93794,2.126482 z m -1.46664,-4.824941 c 0.46781,-0.285221 1.1379,-0.973799 1.4891,-1.530165 0.99367,-1.574059 2.3403,-4.337765 2.18784,-4.490217 -0.1397,-0.1397 -7.20989,1.894496 -8.29775,2.387414 -1.72339,0.780839 0.68207,4.13176 2.97656,4.146471 0.43656,0.0029 1.17647,-0.228283 1.64425,-0.513503 z M 59.750545,75.212945 c 0.72874,-1.841341 2.50722,-5.033856 4.36003,-7.826533 0.45229,-0.681726 0.45377,-0.727605 0.0234,-0.727605 -0.72278,0 -7.87058,2.129843 -8.51788,2.538095 l -0.58197,0.36703 0.48792,1.391709 c 0.51385,1.465659 2.15901,5.349663 2.67197,6.308116 0.38989,0.72853 0.52927,0.544883 1.55653,-2.050812 z m 28.86798,-1.661662 c 13.105785,-4.163669 11.976875,-3.710279 12.226185,-4.910217 0.11596,-0.558139 0.35728,-1.19261 0.53626,-1.409965 0.27197,-0.330253 0.34716,-0.225028 0.45773,0.640742 0.16721,1.309449 0.69551,1.420336 2.77817,0.583115 l 1.52451,-0.612855 1.24909,-3.313006 c 1.4786,-3.921813 2.30532,-5.319554 3.64453,-6.162014 3.14645,-1.979348 4.85971,-1.668991 11.3025,2.047373 1.16062,0.669501 2.37516,1.217268 2.69894,1.217268 0.97887,0 3.17214,-0.538453 3.66691,-0.900245 0.41738,-0.305196 0.3061,-0.429365 -1.09535,-1.222269 -3.28366,-1.857825 -5.8746,-4.219628 -7.6169,-6.943275 -1.40198,-2.191676 -1.49458,-2.235782 -3.56082,-1.696561 -0.96761,0.252518 -8.34837,2.443321 -16.40167,4.868465 l -14.642355,4.409308 -1.12594,1.469893 c -1.77435,2.316374 -7.55731,10.917872 -7.55453,11.236483 0.005,0.524722 2.09455,3.594868 2.44717,3.594868 0.19055,0 4.45006,-1.303708 9.46557,-2.897108 z M 102.49767,62.557766 c 0.30858,-1.469443 2.19601,-5.018643 3.22008,-6.055148 1.04598,-1.058678 3.17238,-2.201889 3.48512,-1.873674 0.0971,0.101865 -0.18074,0.439235 -0.6173,0.749724 -1.55022,1.102518 -2.98217,2.770954 -4.07077,4.743 -0.60688,1.09937 -1.34649,2.27584 -1.64362,2.614348 l -0.5402,0.6155 z m -26.007855,7.606771 c 1.43892,-1.943894 5.50513,-8.316172 5.50513,-8.627269 0,-0.348536 -1.2456,-0.04519 -5.91697,1.440947 -4.26293,1.356175 -5.46012,2.034037 -5.46012,3.091603 0,0.786289 3.79542,5.616073 4.41331,5.616073 0.18288,0 0.83927,-0.68461 1.45865,-1.521354 z M 116.60078,64.71248 c 3.38973,-1.076564 6.24723,-2.042213 6.35,-2.145904 0.24212,-0.244289 -0.71737,-0.997664 -3.49578,-2.744813 -1.87,-1.175915 -2.50915,-1.436873 -3.80775,-1.554613 -2.91852,-0.264636 -4.56293,0.647145 -5.93336,3.289935 -1.07395,2.071026 -2.16625,5.235787 -1.93583,5.608664 0.1796,0.290592 0.20915,0.28239 8.82272,-2.453269 z m 17.89898,-5.743708 c 0.80306,-0.300461 1.5344,-0.666485 1.62515,-0.813355 0.0908,-0.14687 -0.10631,-0.555863 -0.43796,-0.908897 -0.4326,-0.460507 -0.88641,-0.641879 -1.60592,-0.641879 -1.11387,0 -1.38636,0.310277 -1.68894,1.923097 -0.22363,1.192133 -0.0159,1.235578 2.10767,0.441034 z m -3.03429,-1.019783 c 0.6927,-1.778847 1.3672,-2.402681 2.59781,-2.402681 0.81981,0 1.32897,0.227065 2.37299,1.058333 0.73107,0.582083 1.49077,1.057936 1.6882,1.057487 0.19746,0 2.26402,-0.608674 4.59235,-1.351545 2.32833,-0.742871 4.44169,-1.411235 4.69635,-1.485212 0.25467,-0.074 0.46302,-0.306943 0.46302,-0.517657 0,-0.591926 -1.09362,-2.99474 -1.36305,-2.99474 -0.13176,0 -0.95353,0.360416 -1.82621,0.800947 -3.25263,1.641925 -5.49507,1.859306 -9.28436,0.900033 -2.33733,-0.591714 -3.24368,-0.500353 -4.30808,0.434181 -0.50879,0.446749 -1.1775,1.220656 -1.486,1.719792 -0.63119,1.021292 -1.04688,1.169458 -1.04688,0.373115 0,-0.806582 1.23209,-2.592943 2.19218,-3.178333 1.09135,-0.665427 3.04287,-0.669396 5.94913,-0.01217 2.11905,0.479266 2.19641,0.47961 2.4474,0.01058 0.14255,-0.266382 0.25939,-1.057672 0.2596,-1.758474 0,-1.485873 0.70893,-3.084189 1.42651,-3.218301 0.54641,-0.102124 0.55157,-0.144756 -0.26287,2.17153 -0.54573,1.552073 -0.29234,2.635938 0.6476,2.770241 0.68577,0.098 2.94484,-0.940065 4.12567,-1.895766 l 0.77796,-0.629629 -0.46075,-1.206415 c -0.5298,-1.387288 -2.26335,-3.469447 -3.36127,-4.037193 -1.51122,-0.781492 -3.93676,-0.392112 -10.88644,1.747637 l -2.56921,0.791043 -0.16504,0.984054 c -0.32896,1.961512 -0.68363,2.707823 -1.48334,3.121366 -0.8587,0.444077 -1.84555,0.418571 -2.00019,-0.05165 -0.0534,-0.162587 0.25029,-0.365099 0.675,-0.45003 0.42471,-0.08496 0.96512,-0.347398 1.20094,-0.583221 0.52303,-0.523029 0.56603,-1.942394 0.0647,-2.134785 -0.39698,-0.152334 -2.78368,0.400621 -5.39057,1.24888 -1.99191,0.64815 -2.03986,0.874528 -0.64249,3.033607 1.76983,2.734601 4.31321,4.957128 7.25467,6.33947 1.94728,0.915087 2.5423,0.789649 3.1047,-0.654606 z M 36.828685,145.65246 c -2.80631,-0.64003 -5.03625,-1.88224 -7.10847,-3.95986 -1.67405,-1.67844 -1.99998,-2.18371 -3.08784,-4.78692 -1.94381,-4.65145 -3.13448,-8.33474 -3.29289,-10.18646 -0.2857,-3.33952 1.07928,-6.67745 4.19579,-10.26041 1.8324,-2.10664 3.85485,-3.83664 4.22082,-3.61045 0.12793,0.0791 0.2326,1.43227 0.2326,3.0071 v 2.86334 l 2.51317,0.18841 c 1.38224,0.10364 2.58296,0.30136 2.66827,0.4394 0.0853,0.13803 -0.89679,1.3798 -2.18244,2.7595 -4.06588,4.36327 -6.174,7.88503 -6.174,10.31401 0,0.66985 0.18478,1.00923 0.78046,1.43338 2.40139,1.70995 6.00506,2.63025 10.36126,2.64607 3.16953,0.0114 4.99786,0.25186 4.99786,0.65699 0,0.17118 -0.5449,1.04449 -1.21089,1.94072 -0.80673,1.08561 -1.15949,1.79146 -1.05687,2.11479 0.0847,0.26688 0.9868,1.17038 2.00464,2.00771 2.8471,2.34222 2.63573,2.55833 -2.6473,2.70684 -2.46145,0.0692 -4.08243,-0.0161 -5.21417,-0.27416 z m 6.53709,-1.31392 c 0,-0.20481 -0.57187,-0.88942 -1.27083,-1.52135 -0.69895,-0.63196 -1.35163,-1.28297 -1.45039,-1.44669 -0.0988,-0.16373 0.17545,-0.78777 0.60937,-1.38676 0.80252,-1.10784 0.97781,-1.62285 0.55238,-1.62285 -0.1301,0 -1.46955,-0.12338 -2.97656,-0.27416 -3.38298,-0.33848 -6.0838,-1.04558 -8.7609,-2.29368 -1.12867,-0.52617 -2.12307,-0.88577 -2.20977,-0.79906 -0.29449,0.29448 0.73062,2.83821 1.77263,4.39862 1.62262,2.4299 3.81139,3.84481 7.38407,4.7734 2.44099,0.63441 6.35,0.74062 6.35,0.17253 z m -15.37757,-14.732 c 0.94771,-2.35146 1.84874,-3.80981 4.00765,-6.4866 1.01175,-1.25442 1.78143,-2.3748 1.71042,-2.48973 -0.071,-0.11491 -0.83891,-0.29131 -1.70642,-0.39198 l -1.57729,-0.18307 -0.0768,-2.00456 c -0.0466,-1.21608 -0.19682,-2.04422 -0.38189,-2.1054 -0.40449,-0.13377 -3.12659,3.36757 -4.06801,5.23251 -1.46299,2.89817 -1.54533,5.90867 -0.23284,8.51347 1.15493,2.29214 1.37046,2.28428 2.32521,-0.0846 z m 14.31924,-72.226352 c -0.94589,-0.11864 -2.40666,-0.358405 -3.24616,-0.532845 l -1.52636,-0.317129 0.16148,-0.954987 c 0.52442,-3.101314 1.52559,-6.932057 2.32268,-8.887183 3.16137,-7.754223 8.10047,-12.593774 14.32643,-14.037672 1.99026,-0.461573 6.76324,-0.538205 9.12859,-0.146563 0.80037,0.132519 1.54214,0.158723 1.64839,0.05823 0.10624,-0.100492 0.0613,-0.655376 -0.0999,-1.233078 -0.34958,-1.252783 -0.12768,-5.980308 0.3722,-7.929533 0.31298,-1.220444 0.39753,-1.318739 1.0916,-1.268968 1.07664,0.0772 4.02271,1.905016 6.08964,3.778144 0.97502,0.883608 1.88341,1.538182 2.01863,1.454608 0.13522,-0.08357 0.79998,-1.307267 1.47725,-2.719324 2.69447,-5.617811 8.23724,-9.351095 15.02509,-10.120035 4.18968,-0.474612 12.716425,0.447284 15.023625,1.624322 0.88042,0.449152 1.00975,0.634124 1.00975,1.444144 0,1.211283 -0.81391,3.616089 -2.2669,6.697932 -2.01744,4.279133 -4.54526,7.591139 -7.644655,10.016252 -3.93475,3.078731 -7.90244,4.363751 -13.17049,4.265541 -1.56278,-0.02913 -2.91416,0.01976 -3.00306,0.108669 -0.0889,0.0889 0.0487,0.97323 0.30576,1.965177 0.58973,2.275554 0.68651,7.581855 0.15529,8.51472 -0.30453,0.534803 -0.49687,0.603092 -1.32291,0.469662 -1.62582,-0.262572 -4.57376,-1.906143 -6.50673,-3.627697 -2.13826,-1.904383 -1.85545,-2.023959 -3.84671,1.626458 -0.67617,1.239557 -1.97019,3.012979 -3.01436,4.131056 -1.53554,1.644253 -2.21684,2.143416 -4.23918,3.105943 -2.78249,1.324319 -4.56419,1.842453 -8.24124,2.396676 -2.8089,0.423359 -9.09891,0.484796 -12.02773,0.117475 z m 8.46666,-1.563794 c 5.15045,-0.254794 7.51364,-0.749829 10.77696,-2.257583 4.61127,-2.130531 8.61245,-7.928433 8.99904,-13.040061 l 0.15043,-1.989035 -1.29811,0.172943 c -0.80775,0.107614 -1.4611,0.369564 -1.72959,0.693449 -0.23731,0.286279 -0.75519,1.864299 -1.15084,3.506708 -0.71536,2.969559 -2.05277,6.293493 -2.53223,6.293493 -0.37718,0 -0.3215,-0.464344 0.54704,-4.561727 0.43896,-2.070832 0.74036,-3.915663 0.66976,-4.099628 -0.16612,-0.432917 -0.54944,-0.421556 -2.1873,0.06484 -2.031,0.603141 -2.4001,1.03119 -2.97451,3.449502 -1.04569,4.402471 -3.12533,8.851183 -4.13765,8.851183 -0.41718,0 -0.27775,-0.483393 1.29736,-4.497916 2.37124,-6.043631 2.33624,-6.345246 -0.59934,-5.163476 -3.11199,1.252791 -3.2754,1.404498 -3.92652,3.6454 -0.78817,2.71259 -1.95924,5.223195 -2.79679,5.995963 -0.38236,0.352796 -0.69521,0.519404 -0.69521,0.370258 0,-0.149145 0.3709,-1.485741 0.82422,-2.970159 0.45332,-1.484445 0.75606,-2.76715 0.67276,-2.850457 -0.22286,-0.222856 -1.79799,0.766696 -4.23745,2.662126 -1.18488,0.920618 -2.42221,1.814222 -2.74963,1.985778 -2.26772,1.188243 2.26418,-3.956175 5.55625,-6.307201 0.69122,-0.493636 1.25677,-1.046991 1.25677,-1.229681 0,-0.228086 -0.74609,-0.390525 -2.38125,-0.51844 -1.64446,-0.128643 -2.38125,-0.289764 -2.38125,-0.520724 0,-0.551272 0.74677,-0.694687 4.68268,-0.899284 l 3.75664,-0.195278 2.7918,-1.357358 c 1.53549,-0.746548 2.7918,-1.424641 2.7918,-1.506879 0,-0.304453 -1.53255,-0.735176 -4.3026,-1.209243 -3.10965,-0.532189 -3.63254,-0.71505 -3.06784,-1.072867 0.66879,-0.423765 3.64813,-0.238424 7.15307,0.444984 3.80583,0.742077 4.44385,0.699966 7.17124,-0.473327 1.56559,-0.673502 1.5475,-1.146936 -0.0754,-1.972347 -3.06713,-1.559972 -8.73192,-2.055288 -12.02306,-1.051271 -3.26343,0.995569 -4.90574,2.00901 -7.5576,4.663667 -3.13882,3.142134 -4.58516,5.616327 -6.18952,10.588149 -1.37408,4.258231 -1.65648,5.681292 -1.18521,5.972545 0.28244,0.174572 3.50441,0.501333 5.78939,0.587137 0.3638,0.01376 2.74505,-0.07821 5.29166,-0.204179 z m 29.74605,-9.242298 c 0.32971,-1.570492 -0.12486,-4.584054 -0.96989,-6.429827 -0.69723,-1.522963 -1.92788,-2.682687 -3.17772,-2.994586 -0.62639,-0.156316 -0.7276,-0.10152 -0.7276,0.393912 0,0.316516 0.60466,1.938499 1.34368,3.604408 0.73902,1.665907 1.29482,3.175511 1.2351,3.354676 -0.2023,0.60688 -2.05895,-1.766737 -4.34827,-5.558975 -0.48831,-0.80889 -0.77117,-0.748536 -1.11504,0.237918 -0.44434,1.274609 -0.35344,2.111502 0.39173,3.606866 1.13762,2.282915 4.84525,5.159129 6.46155,5.012584 0.55322,-0.05016 0.70155,-0.250928 0.90646,-1.226976 z m 9.50124,-10.091793 c 3.43755,-1.078933 7.02384,-3.619616 10.014295,-7.094561 1.53206,-1.78028 3.93499,-6.509456 4.75822,-9.364599 0.51726,-1.793936 0.54345,-2.100596 0.20748,-2.427121 -0.7063,-0.686411 -6.906935,-1.566076 -10.967905,-1.55598 -6.13725,0.01527 -9.92596,1.357797 -13.23996,4.691624 -2.13848,2.151279 -3.52689,4.584427 -4.32214,7.574483 -1.0603,3.986575 -0.97086,5.252786 0.31167,4.412438 1.04295,-0.683366 1.67445,-1.962547 2.57608,-5.218112 1.50778,-5.444284 2.29565,-5.923942 1.42942,-0.870233 -0.29407,1.715624 -0.37636,2.832904 -0.22015,2.989114 0.35138,0.35138 1.89441,-0.638842 2.38273,-1.529091 0.21785,-0.397145 1.11453,-2.03177 1.99263,-3.632499 0.87811,-1.600729 1.91179,-3.326479 2.29708,-3.834998 1.06299,-1.402953 1.02687,-0.453223 -0.0783,2.060496 -1.25054,2.844242 -1.43414,3.758877 -0.75452,3.758877 1.23461,0 3.21423,-1.727665 6.80163,-5.935959 1.20976,-1.419145 2.36987,-2.263528 2.6816,-1.951799 0.0746,0.07463 -0.28306,0.831112 -0.79487,1.681059 -0.51181,0.849948 -0.93057,1.64166 -0.93057,1.759363 0,0.385466 0.66333,0.229629 4.12,-0.967923 2.334095,-0.808638 3.496565,-1.095906 3.680665,-0.909563 0.32826,0.332208 0.343,0.322781 -4.564445,2.920344 -2.24886,1.190344 -3.68818,2.09805 -3.50566,2.21085 0.1703,0.105254 1.46146,0.217321 2.86923,0.249034 2.32586,0.0524 2.55959,0.10396 2.55959,0.564676 0,0.716468 -0.9304,0.837674 -5.31851,0.692854 -3.57996,-0.118147 -3.79129,-0.09554 -5.21995,0.558528 -2.12338,0.972116 -6.56685,3.903861 -6.45039,4.255886 0.054,0.163134 0.88004,0.675241 1.83571,1.138015 0.95568,0.462772 1.81632,0.968788 1.91254,1.124479 0.25645,0.414936 -1.33546,0.350335 -2.87489,-0.116665 -1.72813,-0.524248 -3.52423,-0.497345 -4.63449,0.06942 -1.92755,0.983972 -1.6911,1.912514 0.66114,2.59633 3.42419,0.995439 7.80507,1.03656 10.78508,0.101234 z m -2.07333,-3.867986 c -0.96994,-0.213431 -1.98437,-0.677388 -1.98437,-0.907568 0,-0.677489 3.06451,-0.574572 5.80216,0.19486 1.04709,0.294294 1.334,0.468633 1.05833,0.643089 -0.37821,0.239344 -3.87773,0.289308 -4.87612,0.06962 z m -17.06562,2.209599 c 0,-0.192212 -0.47625,-1.613289 -1.05834,-3.157953 -0.58208,-1.544664 -1.05337,-3.02451 -1.04731,-3.288545 0.0177,-0.772248 1.52614,1.113461 2.97731,3.721991 0.69769,1.254128 1.37771,2.280232 1.51115,2.280232 0.40885,0 0.8558,-2.177296 0.69211,-3.371546 -0.085,-0.620434 -0.39049,-1.590418 -0.67878,-2.155515 -0.58434,-1.145405 -3.45118,-3.855437 -4.90906,-4.640559 -0.8938,-0.481346 -0.97131,-0.484433 -1.39946,-0.05577 -0.37401,0.374463 -0.45325,0.97241 -0.45325,3.420362 0,2.604391 0.0783,3.125589 0.64106,4.269089 0.35259,0.716386 1.09673,1.758183 1.65365,2.315104 0.9996,0.999601 2.07092,1.342639 2.07092,0.663109 z"
       id="path1" />
  </g>
</svg>
